<?xml version="1.0" encoding="utf-8"?>
<svg version="1.1" xmlns:xlink="http://www.w3.org/1999/xlink" width="14px" height="14px" xmlns="http://www.w3.org/2000/svg">
  <g transform="matrix(1 0 0 1 -1401 -25 )">
    <path d="M 13.4397981745924 11.5108370305707  C 13.4397981745924 12.7823283817934  12.4037681820653 13.8149946508152  11.1356405543477 13.8149946508152  L 2.39666029483703 13.8149946508152  C 1.1251689436142 13.8149946508152  0.0925026745923105 12.7823283817934  0.0925026745923105 11.5108370305707  L 0.0925026745923105 2.77522049456525  C 0.0925026745923105 1.50372914334253  1.1251689436142 0.467699150815179  2.39666029483703 0.467699150815179  L 6.7661504245923 0.467699150815179  C 7.07225019089674 0.467699150815179  7.32116648641295 0.716615446331616  7.3211665006794 1.02271521263583  C 7.32116651494562 1.32881497894027  7.07225019089674 1.57773128872282  6.7661504245923 1.57773128872282  L 2.39666029483703 1.57773128872282  C 1.73736847622274 1.58109501222816  1.20253481249995 2.11592867595118  1.20253481249995 2.77522049456525  L 1.20253481249995 11.5142007683423  C 1.20253481249995 12.1734925869566  1.73736847622274 12.7083262506794  2.39666029483703 12.7083262364131  L 11.1356405543477 12.7083262364131  C 11.794932372962 12.7083262364131  12.3297660366848 12.1734925726903  12.3297660366848 11.5142007683423  L 12.3297660366848 7.14134690081528  C 12.3297660366848 6.83524713451106  12.578682332201 6.58633083899463  12.884782112772 6.58633082472829  C 13.1908818933423 6.58633081046173  13.4397981745924 6.8352471202445  13.4397981745924 7.14134690081528  L 13.4397981745924 11.5108370305707  Z " fill-rule="nonzero" fill="#8998ad" stroke="none" transform="matrix(1 0 0 1 1401 25 )" />
  </g>
</svg>