<?xml version="1.0" encoding="utf-8"?>
<svg version="1.1" xmlns:xlink="http://www.w3.org/1999/xlink" width="193px" height="195px" xmlns="http://www.w3.org/2000/svg">
  <g transform="matrix(1 0 0 1 -922 -363 )">
    <path d="M 1018.5 363  C 1072.54 363  1115 405.9  1115 460.5  C 1115 515.1  1072.54 558  1018.5 558  C 964.46 558  922 515.1  922 460.5  C 922 405.9  964.46 363  1018.5 363  Z " fill-rule="nonzero" fill="#717dd7" stroke="none" />
    <path d="M 1018.5 363.5  C 1072.26 363.5  1114.5 406.18  1114.5 460.5  C 1114.5 514.82  1072.26 557.5  1018.5 557.5  C 964.74 557.5  922.5 514.82  922.5 460.5  C 922.5 406.18  964.74 363.5  1018.5 363.5  Z " stroke-width="1" stroke="#ffffff" fill="none" />
  </g>
</svg>