<svg id="图层_1" data-name="图层 1" xmlns="http://www.w3.org/2000/svg" xmlns:xlink="http://www.w3.org/1999/xlink" viewBox="0 0 128 32">
  <defs>
    <style>
      .cls-1 {
        clip-rule: evenodd;
      }

      .cls-2 {
        fill: none;
      }

      .cls-3 {
        clip-path: url(#clip-path);
      }

      .cls-4 {
        fill-rule: evenodd;
      }

      .cls-5 {
        clip-path: url(#clip-path-2);
      }

      .cls-6 {
        clip-path: url(#clip-path-3);
      }
    </style>
    <clipPath id="clip-path" transform="translate(-0.64 -0.33)">
      <path d="M31.84,24.38c8.69,2.43,20-.72,26.79-7.56l.07,0c-9.54,11-18.67,14.21-29,10.09C30.31,26.23,31.27,25.1,31.84,24.38Z"/>
    </clipPath>
    <clipPath id="clip-path-2" transform="translate(-0.64 -0.33)">
      <path class="cls-1" d="M42.37,4c4.62-.07,8.09,1.18,10,3.52L46.77,12c-6.9-3.08-14,.94-19.85,2.54a16.63,16.63,0,0,1-7.41.46c-2.49-.56-4-1.82-5.68-3.06L10.64,9.08a16.63,16.63,0,0,0,4.79,2.59c7.31,2.1,15.33-3.93,20.24-5.88C37.07,5.33,39.25,4,42.37,4Z"/>
    </clipPath>
    <clipPath id="clip-path-3" transform="translate(-0.64 -0.33)">
      <path d="M39.9,12.34A5.61,5.61,0,1,0,45.51,18,5.61,5.61,0,0,0,39.9,12.34Zm1.66,8a4.85,4.85,0,0,1-4.87-1c-2.43-2.61,1.27-4,1.27-4-1.6,1-1.61,2.1-1.61,2.1-.05,1.76,2,2.47,2,2.47a3.77,3.77,0,0,0,4.18-1.37c1-1.83-2.39-2.08-2.39-2.08v.85h1.12v.87L39,18.89l0-4c3.88-.53,4.73,2.38,4.73,2.38C44.18,19.41,41.56,20.37,41.56,20.37Z"/>
    </clipPath>
  </defs>
  <title>logo4</title>
  <rect class="cls-2" width="128" height="32"/>
  <g>
    <g>
      <path d="M67.52,25.55,65,26.14l-.07-.43.41-.08v-3.9h1.86v3.5l.32-.07ZM65.7,22.12V23h1.07v-.84Zm1.07,1.22H65.7v.83h1.07ZM65.7,25.55l1.07-.23v-.76H65.7ZM70,22.75s0,.16,0,.21c0,2.41-.11,3.22-.3,3.48a.55.55,0,0,1-.42.22c-.17,0-.48,0-.78,0a1.16,1.16,0,0,0-.13-.41c.33,0,.63,0,.75,0a.2.2,0,0,0,.21-.08c.14-.17.21-.93.26-3h-.9c-.08,1.5-.4,2.79-1.56,3.56a1.14,1.14,0,0,0-.31-.31c1.09-.69,1.38-1.87,1.46-3.25h-.92v-.4h.94c0-.42,0-.85,0-1.3h.42c0,.45,0,.88,0,1.3Z" transform="translate(-0.64 -0.33)"/>
      <path d="M76.89,22.7a2.13,2.13,0,0,1,0,.22c-.13,2.36-.25,3.22-.5,3.51a.65.65,0,0,1-.49.23c-.2,0-.57,0-.92,0a1,1,0,0,0-.14-.44,9,9,0,0,0,.9,0,.38.38,0,0,0,.27-.08c.2-.2.33-1,.44-3h-2a4.21,4.21,0,0,1-2.13,3.59,1.29,1.29,0,0,0-.33-.33,3.9,3.9,0,0,0,2-3.26H72.2V22.7h1.86V21.46h.44V22.7Z" transform="translate(-0.64 -0.33)"/>
      <path d="M83.88,22.47v2.69h-.44v-.33H81.79V26.7h-.44V24.83H79.71v.36h-.42V22.47h2.06v-1h.44v1Zm-2.53,1.94V22.89H79.71v1.52Zm2.09,0V22.89H81.79v1.52Z" transform="translate(-0.64 -0.33)"/>
      <path d="M91,21.71v5h-.44v-.29H86.67v.29h-.42v-5ZM90.52,26V22.11H86.67V26Zm-.34-.89v.36H87.05v-.36h1.32v-1H87.29v-.37h1.08V23H87.13v-.39h2.94V23h-1.3v.81h1.15v.37H88.77v1Zm-.77-.87a4.11,4.11,0,0,1,.58.63l-.3.17a4.23,4.23,0,0,0-.55-.65Z" transform="translate(-0.64 -0.33)"/>
      <path d="M96,23.53a4.24,4.24,0,0,0,2.26,2.76,2.55,2.55,0,0,0-.32.4,4.66,4.66,0,0,1-2.29-2.85,4,4,0,0,1-2.29,2.85,1.31,1.31,0,0,0-.32-.35,3.73,3.73,0,0,0,2.23-2.81H93.12v-.44h2.19a12.36,12.36,0,0,0,.09-1.63h.46a14.24,14.24,0,0,1-.09,1.63h2.37v.44Z" transform="translate(-0.64 -0.33)"/>
      <path d="M101.25,23.25a3.77,3.77,0,0,1-1,.84,1.5,1.5,0,0,0-.23-.33,3,3,0,0,0,1.11-.89h-1.05v-.36h1.18V21.45h.4v1.06h1.17v.36h-1.08c.29.16.78.49.91.58l-.23.31c-.14-.13-.5-.41-.77-.61v.79h-.4Zm.89,3a4,4,0,0,0-.5-.32,3.84,3.84,0,0,1-1.42.69,1.61,1.61,0,0,0-.2-.33,3.66,3.66,0,0,0,1.28-.55,9.65,9.65,0,0,0-.88-.4,5.47,5.47,0,0,0,.36-.61h-.59V24.4H101a2.39,2.39,0,0,0,.15-.37l.38.07c0,.1-.07.2-.12.3h1l.24.09a2.91,2.91,0,0,1-.69,1.22,5.26,5.26,0,0,1,.48.3Zm-1.5-3.81a2.68,2.68,0,0,0-.36-.75l.31-.13a2.9,2.9,0,0,1,.38.74Zm.55,2.29a4.77,4.77,0,0,1-.25.46l.65.3a2.08,2.08,0,0,0,.53-.76Zm1.48-3a8.27,8.27,0,0,1-.51.73l-.28-.13a4.11,4.11,0,0,0,.43-.76ZM104.81,23a7,7,0,0,1-.63,2.17,3,3,0,0,0,1.15,1.2,1.53,1.53,0,0,0-.29.33A3.15,3.15,0,0,1,104,25.5a3.78,3.78,0,0,1-1.37,1.22,1.92,1.92,0,0,0-.23-.35,3.13,3.13,0,0,0,1.39-1.27,6.86,6.86,0,0,1-.51-1.53,3.78,3.78,0,0,1-.39.75,2.78,2.78,0,0,0-.32-.26,6,6,0,0,0,.84-2.56l.39.06a8,8,0,0,1-.19,1h1.62V23Zm-1.33,0a7.86,7.86,0,0,0,.49,1.72A6.55,6.55,0,0,0,104.4,23Z" transform="translate(-0.64 -0.33)"/>
      <path d="M108.15,24.55v1.62c0,.23-.05.34-.19.41a1.63,1.63,0,0,1-.72.08,2.88,2.88,0,0,0-.12-.4h.54c.07,0,.09,0,.09-.11V24.68l-.67.22-.11-.41.78-.23V23H107v-.4h.71V21.45h.4V22.6h.65V23h-.65v1.14l.6-.19.06.39Zm2.83-.37v.71h1.11v1.79h-.39v-.21h-1.77v.24h-.37V24.89h1v-.71h-1.14a5,5,0,0,1-.69,2.52,1,1,0,0,0-.34-.24,5.62,5.62,0,0,0,.64-3V21.7h3v1.48H111v.63h1.28v.37Zm-.4-.37v-.63h-1.11v.24c0,.13,0,.25,0,.39Zm-1.11-1.74v.73h2.19v-.73Zm2.23,3.18h-1.77v.87h1.77Z" transform="translate(-0.64 -0.33)"/>
      <path d="M115.18,24.33H114v-.39h1.17V22.69h.42v1.25h1.16v.39H115.6v1.26h-.42Z" transform="translate(-0.64 -0.33)"/>
    </g>
    <g>
      <path d="M97.35,15.73h-4v-.22h.26c.4,0,.66-.13.77-.4a2.14,2.14,0,0,0,.07-.73V9.22a5.41,5.41,0,0,0,0-.58.6.6,0,0,0-.3-.44,1,1,0,0,0-.52-.11H93.3V7.87h4v.22H97.1a.76.76,0,0,0-.78.4,2.54,2.54,0,0,0-.06.73v5.16c0,.32,0,.51,0,.57a.64.64,0,0,0,.31.45,1.09,1.09,0,0,0,.52.11h.25Z" transform="translate(-0.64 -0.33)"/>
      <path d="M103.53,11.86c0-1.84-.48-3-1.43-3.38a3.54,3.54,0,0,0-1.37-.17v6.13c0,.25,0,.39,0,.43a.43.43,0,0,0,.19.34,1,1,0,0,0,.45.09,1.71,1.71,0,0,0,1.46-.66,4.57,4.57,0,0,0,.69-2.78m2.06,0a3.79,3.79,0,0,1-.94,2.68,4,4,0,0,1-2.3,1.16,6,6,0,0,1-1.1.07H97.78v-.22H98a.76.76,0,0,0,.78-.4,2.39,2.39,0,0,0,.06-.73V9.22a5.26,5.26,0,0,0,0-.58.66.66,0,0,0-.3-.44A1,1,0,0,0,98,8.09h-.26V7.87h3.47a5.61,5.61,0,0,1,2.24.38,3.39,3.39,0,0,1,1.59,1.45,4.29,4.29,0,0,1,.51,2.12" transform="translate(-0.64 -0.33)"/>
      <path d="M112.13,13.51a2.2,2.2,0,0,1-.83,1.76,2.8,2.8,0,0,1-1.85.64,3.92,3.92,0,0,1-1.51-.36,1.12,1.12,0,0,0-.45-.11.65.65,0,0,0-.59.47h-.21v-3h.21a3.76,3.76,0,0,0,.83,1.75,2.14,2.14,0,0,0,1.68.81,1.57,1.57,0,0,0,1-.3,1,1,0,0,0,.44-.88,1.31,1.31,0,0,0-.59-1,6.52,6.52,0,0,0-1-.61,12,12,0,0,1-1.25-.7,3.06,3.06,0,0,1-1-1,2.19,2.19,0,0,1,.47-2.64,2.39,2.39,0,0,1,1.68-.62,3,3,0,0,1,.73.09,6.08,6.08,0,0,1,.63.25,2.08,2.08,0,0,0,.56.2c.19,0,.32-.18.4-.54h.17l.07,2.62h-.24a2.94,2.94,0,0,0-.73-1.51,2,2,0,0,0-1.49-.68,1.43,1.43,0,0,0-.85.26.94.94,0,0,0-.41.79,1.28,1.28,0,0,0,.66,1,10.65,10.65,0,0,0,1.23.68,6.28,6.28,0,0,1,1.58,1,2.22,2.22,0,0,1,.73,1.66" transform="translate(-0.64 -0.33)"/>
      <path d="M118.64,13.51a2.2,2.2,0,0,1-.83,1.76,2.78,2.78,0,0,1-1.85.64,4,4,0,0,1-1.51-.36,1.12,1.12,0,0,0-.45-.11c-.25,0-.44.15-.58.47h-.22v-3h.22a3.65,3.65,0,0,0,.82,1.75,2.16,2.16,0,0,0,1.69.81,1.54,1.54,0,0,0,.95-.3,1,1,0,0,0,.44-.88,1.32,1.32,0,0,0-.58-1,6.52,6.52,0,0,0-1-.61,11.35,11.35,0,0,1-1.26-.7,3,3,0,0,1-1-1,2,2,0,0,1-.25-1,2.13,2.13,0,0,1,.71-1.64,2.39,2.39,0,0,1,1.68-.62,2.92,2.92,0,0,1,.73.09c.09,0,.3.11.64.25a2,2,0,0,0,.56.2q.27,0,.39-.54h.18l.06,2.62h-.24a2.86,2.86,0,0,0-.73-1.51,2,2,0,0,0-1.48-.68,1.46,1.46,0,0,0-.86.26.93.93,0,0,0-.4.79,1.29,1.29,0,0,0,.65,1,11.13,11.13,0,0,0,1.24.68,6.37,6.37,0,0,1,1.57,1,2.19,2.19,0,0,1,.73,1.66" transform="translate(-0.64 -0.33)"/>
      <path d="M68.19,14.55a14.23,14.23,0,0,0-.8-1.8,9.72,9.72,0,0,1-2,2.95,3.82,3.82,0,0,0-.63-.64,9.11,9.11,0,0,0,2.15-3.25A27.43,27.43,0,0,0,65,8.91l.65-.42c.55.72,1.12,1.53,1.64,2.35a18.14,18.14,0,0,0,.81-3.43H64.91V6.6h3.36l.16,0,.54.16a20.83,20.83,0,0,1-1.16,5A15.48,15.48,0,0,1,68.92,14Zm6,.76c.37,0,.43-.3.48-1.93a2.07,2.07,0,0,0,.7.32c-.1,1.8-.22,2.26-1.19,2.26h-1c-.75,0-1.06-.22-1.06-1V12.4a6,6,0,0,1-3.21,3.77,2.24,2.24,0,0,0-.53-.62,5.4,5.4,0,0,0,3.22-5.38V8h.8v2.2a8.67,8.67,0,0,1-.21,2h.72v2.76c0,.31.1.39.4.39Zm-3.76-3h-.81v-6h5v6h-.83V7H70.38Z" transform="translate(-0.64 -0.33)"/>
      <path d="M84.22,11a7.31,7.31,0,0,1-1.63,2.62,23.56,23.56,0,0,1,3.57,1.79l-.7.73a23.29,23.29,0,0,0-3.6-1.88,11.33,11.33,0,0,1-4.62,1.92,3.42,3.42,0,0,0-.53-.77A10.75,10.75,0,0,0,81,13.84c-1-.41-2.07-.8-3-1.1h0A20.58,20.58,0,0,0,79.18,11H76.55v-.81h3.11a16.55,16.55,0,0,0,.91-1.85l.91.2a18,18,0,0,1-.82,1.65H86.4V11ZM77.68,9.32h-.85V7H81c-.16-.35-.37-.79-.54-1.13l.87-.21c.23.43.49.95.66,1.34h4.07V9.32h-.88V7.82H77.68ZM80.19,11c-.31.51-.62,1-.91,1.4.8.25,1.64.56,2.47.88A5.9,5.9,0,0,0,83.25,11Z" transform="translate(-0.64 -0.33)"/>
    </g>
    <g>
      <path d="M31.84,24.38c8.69,2.43,20-.72,26.79-7.56l.07,0c-9.54,11-18.67,14.21-29,10.09C30.31,26.23,31.27,25.1,31.84,24.38Z" transform="translate(-0.64 -0.33)"/>
      <g class="cls-3">
        <path d="M29.74,16.82v0Z" transform="translate(-0.64 -0.33)"/>
        <rect x="29.1" y="16.49" width="0.3" height="14.24"/>
        <rect x="29.4" y="16.49" width="0.3" height="14.24"/>
        <rect x="29.69" y="16.49" width="0.3" height="14.24"/>
        <rect x="29.99" y="16.49" width="0.3" height="14.24"/>
        <rect x="30.28" y="16.49" width="0.3" height="14.24"/>
        <rect x="30.58" y="16.49" width="0.3" height="14.24"/>
        <rect x="30.88" y="16.49" width="0.3" height="14.24"/>
        <rect x="31.17" y="16.49" width="0.3" height="14.24"/>
        <rect x="31.47" y="16.49" width="0.3" height="14.24"/>
        <rect x="31.76" y="16.49" width="0.3" height="14.24"/>
        <rect x="32.06" y="16.49" width="0.3" height="14.24"/>
        <rect x="32.35" y="16.49" width="0.3" height="14.24"/>
        <rect x="32.65" y="16.49" width="0.3" height="14.24"/>
        <rect x="32.94" y="16.49" width="0.3" height="14.24"/>
        <rect x="33.24" y="16.49" width="0.3" height="14.24"/>
        <rect x="33.54" y="16.49" width="0.3" height="14.24"/>
        <rect x="33.83" y="16.49" width="0.3" height="14.24"/>
        <rect x="34.13" y="16.49" width="0.3" height="14.24"/>
        <rect x="34.42" y="16.49" width="0.3" height="14.24"/>
        <rect x="34.72" y="16.49" width="0.3" height="14.24"/>
        <rect x="35.01" y="16.49" width="0.3" height="14.24"/>
        <rect x="35.31" y="16.49" width="0.3" height="14.24"/>
        <rect x="35.6" y="16.49" width="0.3" height="14.24"/>
        <rect x="35.9" y="16.49" width="0.3" height="14.24"/>
        <rect x="36.19" y="16.49" width="0.3" height="14.24"/>
        <rect x="36.49" y="16.49" width="0.3" height="14.24"/>
        <rect x="36.79" y="16.49" width="0.3" height="14.24"/>
        <rect x="37.08" y="16.49" width="0.3" height="14.24"/>
        <rect x="37.38" y="16.49" width="0.3" height="14.24"/>
        <rect x="37.67" y="16.49" width="0.3" height="14.24"/>
        <rect x="37.97" y="16.49" width="0.3" height="14.24"/>
        <rect x="38.26" y="16.49" width="0.3" height="14.24"/>
        <rect x="38.56" y="16.49" width="0.3" height="14.24"/>
        <rect x="38.85" y="16.49" width="0.3" height="14.24"/>
        <rect x="39.15" y="16.49" width="0.3" height="14.24"/>
        <rect x="39.45" y="16.49" width="0.3" height="14.24"/>
        <rect x="39.74" y="16.49" width="0.3" height="14.24"/>
        <rect x="40.04" y="16.49" width="0.3" height="14.24"/>
        <rect x="40.33" y="16.49" width="0.3" height="14.24"/>
        <rect x="40.63" y="16.49" width="0.3" height="14.24"/>
        <rect x="40.92" y="16.49" width="0.3" height="14.24"/>
        <rect x="41.22" y="16.49" width="0.3" height="14.24"/>
        <rect x="41.51" y="16.49" width="0.3" height="14.24"/>
        <rect x="41.81" y="16.49" width="0.3" height="14.24"/>
        <rect x="42.11" y="16.49" width="0.3" height="14.24"/>
        <rect x="42.4" y="16.49" width="0.3" height="14.24"/>
        <rect x="42.7" y="16.49" width="0.3" height="14.24"/>
        <rect x="42.99" y="16.49" width="0.3" height="14.24"/>
        <rect x="43.29" y="16.49" width="0.3" height="14.24"/>
        <rect x="43.58" y="16.49" width="0.3" height="14.24"/>
        <rect x="43.88" y="16.49" width="0.3" height="14.24"/>
        <rect x="44.17" y="16.49" width="0.3" height="14.24"/>
        <rect x="44.47" y="16.49" width="0.3" height="14.24"/>
        <rect x="44.77" y="16.49" width="0.3" height="14.24"/>
        <rect x="45.06" y="16.49" width="0.3" height="14.24"/>
        <rect x="45.36" y="16.49" width="0.3" height="14.24"/>
        <rect x="45.65" y="16.49" width="0.3" height="14.24"/>
        <rect x="45.95" y="16.49" width="0.3" height="14.24"/>
        <rect x="46.24" y="16.49" width="0.3" height="14.24"/>
        <rect x="46.54" y="16.49" width="0.3" height="14.24"/>
        <rect x="46.83" y="16.49" width="0.3" height="14.24"/>
        <rect x="47.13" y="16.49" width="0.3" height="14.24"/>
        <rect x="47.42" y="16.49" width="0.3" height="14.24"/>
        <rect x="47.72" y="16.49" width="0.3" height="14.24"/>
        <rect x="48.02" y="16.49" width="0.3" height="14.24"/>
        <rect x="48.31" y="16.49" width="0.3" height="14.24"/>
        <rect x="48.61" y="16.49" width="0.3" height="14.24"/>
        <rect x="48.9" y="16.49" width="0.3" height="14.24"/>
        <rect x="49.2" y="16.49" width="0.3" height="14.24"/>
        <rect x="49.49" y="16.49" width="0.3" height="14.24"/>
        <rect x="49.79" y="16.49" width="0.3" height="14.24"/>
        <rect x="50.08" y="16.49" width="0.3" height="14.24"/>
        <rect x="50.38" y="16.49" width="0.3" height="14.24"/>
        <rect x="50.68" y="16.49" width="0.3" height="14.24"/>
        <rect x="50.97" y="16.49" width="0.3" height="14.24"/>
        <rect x="51.27" y="16.49" width="0.3" height="14.24"/>
        <rect x="51.56" y="16.49" width="0.3" height="14.24"/>
        <rect x="51.86" y="16.49" width="0.3" height="14.24"/>
        <rect x="52.15" y="16.49" width="0.3" height="14.24"/>
        <rect x="52.45" y="16.49" width="0.3" height="14.24"/>
        <rect x="52.74" y="16.49" width="0.3" height="14.24"/>
        <rect x="53.04" y="16.49" width="0.3" height="14.24"/>
        <rect x="53.34" y="16.49" width="0.3" height="14.24"/>
        <rect x="53.63" y="16.49" width="0.3" height="14.24"/>
        <rect x="53.93" y="16.49" width="0.3" height="14.24"/>
        <rect x="54.22" y="16.49" width="0.3" height="14.24"/>
        <rect x="54.52" y="16.49" width="0.3" height="14.24"/>
        <rect x="54.81" y="16.49" width="0.3" height="14.24"/>
        <rect x="55.11" y="16.49" width="0.3" height="14.24"/>
        <rect x="55.4" y="16.49" width="0.3" height="14.24"/>
        <rect x="55.7" y="16.49" width="0.3" height="14.24"/>
        <rect x="56" y="16.49" width="0.3" height="14.24"/>
        <rect x="56.29" y="16.49" width="0.3" height="14.24"/>
        <rect x="56.59" y="16.49" width="0.3" height="14.24"/>
        <rect x="56.88" y="16.49" width="0.3" height="14.24"/>
        <rect x="57.18" y="16.49" width="0.3" height="14.24"/>
        <rect x="57.47" y="16.49" width="0.3" height="14.24"/>
        <rect x="57.77" y="16.49" width="0.3" height="14.24"/>
        <path d="M58.7,31.06v0Z" transform="translate(-0.64 -0.33)"/>
      </g>
    </g>
    <g>
      <path class="cls-4" d="M42.37,4c4.62-.07,8.09,1.18,10,3.52L46.77,12c-6.9-3.08-14,.94-19.85,2.54a16.63,16.63,0,0,1-7.41.46c-2.49-.56-4-1.82-5.68-3.06L10.64,9.08a16.63,16.63,0,0,0,4.79,2.59c7.31,2.1,15.33-3.93,20.24-5.88C37.07,5.33,39.25,4,42.37,4Z" transform="translate(-0.64 -0.33)"/>
      <g class="cls-5">
        <path class="cls-4" d="M10.64,3.93v0Z" transform="translate(-0.64 -0.33)"/>
        <rect x="10" y="3.59" width="0.43" height="11.59"/>
        <rect x="10.43" y="3.59" width="0.43" height="11.59"/>
        <rect x="10.85" y="3.59" width="0.43" height="11.59"/>
        <rect x="11.28" y="3.59" width="0.43" height="11.59"/>
        <rect x="11.7" y="3.59" width="0.43" height="11.59"/>
        <rect x="12.13" y="3.59" width="0.43" height="11.59"/>
        <rect x="12.56" y="3.59" width="0.43" height="11.59"/>
        <rect x="12.98" y="3.59" width="0.43" height="11.59"/>
        <rect x="13.41" y="3.59" width="0.43" height="11.59"/>
        <rect x="13.83" y="3.59" width="0.43" height="11.59"/>
        <rect x="14.26" y="3.59" width="0.43" height="11.59"/>
        <rect x="14.69" y="3.59" width="0.43" height="11.59"/>
        <rect x="15.11" y="3.59" width="0.43" height="11.59"/>
        <rect x="15.54" y="3.59" width="0.43" height="11.59"/>
        <rect x="15.96" y="3.59" width="0.43" height="11.59"/>
        <rect x="16.39" y="3.59" width="0.43" height="11.59"/>
        <rect x="16.82" y="3.59" width="0.43" height="11.59"/>
        <rect x="17.24" y="3.59" width="0.43" height="11.59"/>
        <rect x="17.67" y="3.59" width="0.43" height="11.59"/>
        <rect x="18.09" y="3.59" width="0.43" height="11.59"/>
        <rect x="18.52" y="3.59" width="0.43" height="11.59"/>
        <rect x="18.95" y="3.59" width="0.43" height="11.59"/>
        <rect x="19.37" y="3.59" width="0.43" height="11.59"/>
        <rect x="19.8" y="3.59" width="0.43" height="11.59"/>
        <rect x="20.22" y="3.59" width="0.43" height="11.59"/>
        <rect x="20.65" y="3.59" width="0.43" height="11.59"/>
        <rect x="21.08" y="3.59" width="0.43" height="11.59"/>
        <rect x="21.5" y="3.59" width="0.43" height="11.59"/>
        <rect x="21.93" y="3.59" width="0.43" height="11.59"/>
        <rect x="22.35" y="3.59" width="0.43" height="11.59"/>
        <rect x="22.78" y="3.59" width="0.43" height="11.59"/>
        <rect x="23.21" y="3.59" width="0.43" height="11.59"/>
        <rect x="23.63" y="3.59" width="0.43" height="11.59"/>
        <rect x="24.06" y="3.59" width="0.43" height="11.59"/>
        <rect x="24.48" y="3.59" width="0.43" height="11.59"/>
        <rect x="24.91" y="3.59" width="0.43" height="11.59"/>
        <rect x="25.34" y="3.59" width="0.43" height="11.59"/>
        <rect x="25.76" y="3.59" width="0.43" height="11.59"/>
        <rect x="26.19" y="3.59" width="0.43" height="11.59"/>
        <rect x="26.62" y="3.59" width="0.43" height="11.59"/>
        <rect x="27.04" y="3.59" width="0.43" height="11.59"/>
        <rect x="27.47" y="3.59" width="0.43" height="11.59"/>
        <rect x="27.89" y="3.59" width="0.43" height="11.59"/>
        <rect x="28.32" y="3.59" width="0.43" height="11.59"/>
        <rect x="28.75" y="3.59" width="0.43" height="11.59"/>
        <rect x="29.17" y="3.59" width="0.43" height="11.59"/>
        <rect x="29.6" y="3.59" width="0.43" height="11.59"/>
        <rect x="30.02" y="3.59" width="0.43" height="11.59"/>
        <rect x="30.45" y="3.59" width="0.43" height="11.59"/>
        <rect x="30.88" y="3.59" width="0.43" height="11.59"/>
        <rect x="31.3" y="3.59" width="0.43" height="11.59"/>
        <rect x="31.73" y="3.59" width="0.43" height="11.59"/>
        <rect x="32.15" y="3.59" width="0.43" height="11.59"/>
        <rect x="32.58" y="3.59" width="0.43" height="11.59"/>
        <rect x="33.01" y="3.59" width="0.43" height="11.59"/>
        <rect x="33.43" y="3.59" width="0.43" height="11.59"/>
        <rect x="33.86" y="3.59" width="0.43" height="11.59"/>
        <rect x="34.28" y="3.59" width="0.43" height="11.59"/>
        <rect x="34.71" y="3.59" width="0.43" height="11.59"/>
        <rect x="35.14" y="3.59" width="0.43" height="11.59"/>
        <rect x="35.56" y="3.59" width="0.43" height="11.59"/>
        <rect x="35.99" y="3.59" width="0.43" height="11.59"/>
        <rect x="36.41" y="3.59" width="0.43" height="11.59"/>
        <rect x="36.84" y="3.59" width="0.43" height="11.59"/>
        <rect x="37.27" y="3.59" width="0.43" height="11.59"/>
        <rect x="37.69" y="3.59" width="0.43" height="11.59"/>
        <rect x="38.12" y="3.59" width="0.43" height="11.59"/>
        <rect x="38.54" y="3.59" width="0.43" height="11.59"/>
        <rect x="38.97" y="3.59" width="0.43" height="11.59"/>
        <rect x="39.4" y="3.59" width="0.43" height="11.59"/>
        <rect x="39.82" y="3.59" width="0.43" height="11.59"/>
        <rect x="40.25" y="3.59" width="0.43" height="11.59"/>
        <rect x="40.67" y="3.59" width="0.43" height="11.59"/>
        <rect x="41.1" y="3.59" width="0.43" height="11.59"/>
        <rect x="41.53" y="3.59" width="0.43" height="11.59"/>
        <rect x="41.95" y="3.59" width="0.43" height="11.59"/>
        <rect x="42.38" y="3.59" width="0.43" height="11.59"/>
        <rect x="42.8" y="3.59" width="0.43" height="11.59"/>
        <rect x="43.23" y="3.59" width="0.43" height="11.59"/>
        <rect x="43.66" y="3.59" width="0.43" height="11.59"/>
        <rect x="44.08" y="3.59" width="0.43" height="11.59"/>
        <rect x="44.51" y="3.59" width="0.43" height="11.59"/>
        <rect x="44.93" y="3.59" width="0.43" height="11.59"/>
        <rect x="45.36" y="3.59" width="0.43" height="11.59"/>
        <rect x="45.79" y="3.59" width="0.43" height="11.59"/>
        <rect x="46.21" y="3.59" width="0.43" height="11.59"/>
        <rect x="46.64" y="3.59" width="0.43" height="11.59"/>
        <rect x="47.06" y="3.59" width="0.43" height="11.59"/>
        <rect x="47.49" y="3.59" width="0.43" height="11.59"/>
        <rect x="47.92" y="3.59" width="0.43" height="11.59"/>
        <rect x="48.34" y="3.59" width="0.43" height="11.59"/>
        <rect x="48.77" y="3.59" width="0.43" height="11.59"/>
        <rect x="49.19" y="3.59" width="0.43" height="11.59"/>
        <rect x="49.62" y="3.59" width="0.43" height="11.59"/>
        <rect x="50.05" y="3.59" width="0.43" height="11.59"/>
        <rect x="50.47" y="3.59" width="0.43" height="11.59"/>
        <rect x="50.9" y="3.59" width="0.43" height="11.59"/>
        <rect x="51.32" y="3.59" width="0.43" height="11.59"/>
        <path class="cls-4" d="M52.39,15.51v0Z" transform="translate(-0.64 -0.33)"/>
      </g>
    </g>
    <g>
      <path d="M39.9,12.34A5.61,5.61,0,1,0,45.51,18,5.61,5.61,0,0,0,39.9,12.34Zm1.66,8a4.85,4.85,0,0,1-4.87-1c-2.43-2.61,1.27-4,1.27-4-1.6,1-1.61,2.1-1.61,2.1-.05,1.76,2,2.47,2,2.47a3.77,3.77,0,0,0,4.18-1.37c1-1.83-2.39-2.08-2.39-2.08v.85h1.12v.87L39,18.89l0-4c3.88-.53,4.73,2.38,4.73,2.38C44.18,19.41,41.56,20.37,41.56,20.37Z" transform="translate(-0.64 -0.33)"/>
      <g class="cls-6">
        <rect x="33.62" y="14.04" width="0.03" height="6.98"/>
        <rect x="33.64" y="14.04" width="0.01" height="6.98"/>
        <rect x="33.66" y="14.04" width="0.01" height="6.98"/>
        <rect x="33.67" y="14.04" width="0.01" height="6.98"/>
        <rect x="33.68" y="14.04" width="0.01" height="6.98"/>
        <rect x="33.69" y="14.04" width="0.01" height="6.98"/>
        <rect x="33.71" y="14.04" width="0.01" height="6.98"/>
        <rect x="33.72" y="14.04" width="0.01" height="6.98"/>
        <rect x="33.73" y="14.04" width="0.01" height="6.98"/>
        <rect x="33.74" y="14.04" width="0.01" height="6.98"/>
        <rect x="33.76" y="14.04" width="0.01" height="6.98"/>
        <rect x="33.77" y="14.04" width="0.01" height="6.98"/>
        <rect x="33.78" y="14.04" width="0.01" height="6.98"/>
        <rect x="33.79" y="14.04" width="0.01" height="6.98"/>
        <rect x="33.81" y="14.04" width="0.01" height="6.98"/>
        <rect x="33.82" y="14.04" width="0.01" height="6.98"/>
        <rect x="33.83" y="14.04" width="0.01" height="6.98"/>
        <rect x="33.84" y="14.04" width="0.01" height="6.98"/>
        <rect x="33.86" y="14.04" width="0.01" height="6.98"/>
        <rect x="33.87" y="14.04" width="0.01" height="6.98"/>
        <rect x="33.88" y="14.04" width="0.01" height="6.98"/>
        <rect x="33.89" y="14.04" width="0.01" height="6.98"/>
        <rect x="33.9" y="14.04" width="0.01" height="6.98"/>
        <rect x="33.92" y="14.04" width="0.01" height="6.98"/>
        <rect x="33.93" y="14.04" width="0.01" height="6.98"/>
        <rect x="33.94" y="14.04" width="0.01" height="6.98"/>
        <rect x="33.95" y="14.04" width="0.01" height="6.98"/>
        <rect x="33.97" y="14.04" width="0.01" height="6.98"/>
        <rect x="33.98" y="14.04" width="0.01" height="6.98"/>
        <rect x="33.99" y="14.04" width="0.01" height="6.98"/>
        <rect x="34" y="14.04" width="0.01" height="6.98"/>
        <rect x="34.02" y="14.04" width="0.01" height="6.98"/>
        <rect x="34.03" y="14.04" width="0.01" height="6.98"/>
        <rect x="34.04" y="14.04" width="0.01" height="6.98"/>
        <rect x="34.05" y="14.04" width="0.01" height="6.98"/>
        <rect x="34.07" y="14.04" width="0.01" height="6.98"/>
        <rect x="34.08" y="14.04" width="0.01" height="6.98"/>
        <rect x="34.09" y="14.04" width="0.01" height="6.98"/>
        <rect x="34.1" y="14.04" width="0.01" height="6.98"/>
        <rect x="34.11" y="14.04" width="0.01" height="6.98"/>
        <rect x="34.13" y="14.04" width="0.01" height="6.98"/>
        <rect x="34.14" y="14.04" width="0.01" height="6.98"/>
        <rect x="34.15" y="14.04" width="0.01" height="6.98"/>
        <rect x="34.16" y="14.04" width="0.01" height="6.98"/>
        <rect x="34.18" y="14.04" width="0.01" height="6.98"/>
        <rect x="34.19" y="14.04" width="0.01" height="6.98"/>
        <rect x="34.2" y="14.04" width="0.01" height="6.98"/>
        <rect x="34.21" y="14.04" width="0.01" height="6.98"/>
        <rect x="34.23" y="14.04" width="0.01" height="6.98"/>
        <rect x="34.24" y="14.04" width="0.01" height="6.98"/>
        <rect x="34.25" y="14.04" width="0.01" height="6.98"/>
        <rect x="34.26" y="14.04" width="0.01" height="6.98"/>
        <rect x="34.28" y="14.04" width="0.01" height="6.98"/>
        <rect x="34.29" y="14.04" width="0.01" height="6.98"/>
        <rect x="34.3" y="14.04" width="0.01" height="6.98"/>
        <rect x="34.31" y="14.04" width="0.01" height="6.98"/>
        <rect x="34.33" y="14.04" width="0.01" height="6.98"/>
        <rect x="34.34" y="14.04" width="0.01" height="6.98"/>
        <rect x="34.35" y="14.04" width="0.01" height="6.98"/>
        <rect x="34.36" y="14.04" width="0.01" height="6.98"/>
        <rect x="34.37" y="14.04" width="0.01" height="6.98"/>
        <rect x="34.39" y="14.04" width="0.01" height="6.98"/>
        <rect x="34.4" y="14.04" width="0.01" height="6.98"/>
        <rect x="34.41" y="14.04" width="0.01" height="6.98"/>
        <rect x="34.42" y="14.04" width="0.01" height="6.98"/>
        <rect x="34.44" y="14.04" width="0.01" height="6.98"/>
        <rect x="34.45" y="14.04" width="0.01" height="6.98"/>
        <rect x="34.46" y="14.04" width="0.01" height="6.98"/>
        <rect x="34.47" y="14.04" width="0.01" height="6.98"/>
        <rect x="34.49" y="14.04" width="0.01" height="6.98"/>
        <rect x="34.5" y="14.04" width="0.01" height="6.98"/>
        <rect x="34.51" y="14.04" width="0.01" height="6.98"/>
        <rect x="34.52" y="14.04" width="0.01" height="6.98"/>
        <rect x="34.54" y="14.04" width="0.01" height="6.98"/>
        <rect x="34.55" y="14.04" width="0.01" height="6.98"/>
        <rect x="34.56" y="14.04" width="0.01" height="6.98"/>
        <rect x="34.57" y="14.04" width="0.01" height="6.98"/>
        <rect x="34.58" y="14.04" width="0.01" height="6.98"/>
        <rect x="34.6" y="14.04" width="0.01" height="6.98"/>
        <rect x="34.61" y="14.04" width="0.01" height="6.98"/>
        <rect x="34.62" y="14.04" width="0.01" height="6.98"/>
        <rect x="34.63" y="14.04" width="0.01" height="6.98"/>
        <rect x="34.65" y="14.04" width="0.01" height="6.98"/>
        <rect x="34.66" y="14.04" width="0.01" height="6.98"/>
        <rect x="34.67" y="14.04" width="0.01" height="6.98"/>
        <rect x="34.68" y="14.04" width="0.01" height="6.98"/>
        <rect x="34.7" y="14.04" width="0.01" height="6.98"/>
        <rect x="34.71" y="14.04" width="0.01" height="6.98"/>
        <rect x="34.72" y="14.04" width="0.01" height="6.98"/>
        <rect x="34.73" y="14.04" width="0.01" height="6.98"/>
        <rect x="34.75" y="14.04" width="0.01" height="6.98"/>
        <rect x="34.76" y="14.04" width="0.01" height="6.98"/>
        <rect x="34.77" y="14.04" width="0.01" height="6.98"/>
        <rect x="34.78" y="14.04" width="0.01" height="6.98"/>
        <rect x="34.8" y="14.04" width="0.01" height="6.98"/>
        <rect x="34.81" y="14.04" width="0.01" height="6.98"/>
        <rect x="34.82" y="14.04" width="0.01" height="6.98"/>
        <rect x="34.83" y="14.04" width="0.01" height="6.98"/>
        <rect x="34.84" y="14.04" width="0.01" height="6.98"/>
        <rect x="34.86" y="14.04" width="0.01" height="6.98"/>
        <rect x="34.87" y="14.04" width="0.01" height="6.98"/>
        <rect x="34.88" y="14.04" width="0.01" height="6.98"/>
        <rect x="34.89" y="14.04" width="0.01" height="6.98"/>
        <rect x="34.91" y="14.04" width="0.01" height="6.98"/>
        <rect x="34.92" y="14.04" width="0.01" height="6.98"/>
        <rect x="34.93" y="14.04" width="0.01" height="6.98"/>
        <rect x="34.94" y="14.04" width="0.01" height="6.98"/>
        <rect x="34.96" y="14.04" width="0.01" height="6.98"/>
        <rect x="34.97" y="14.04" width="0.01" height="6.98"/>
        <rect x="34.98" y="14.04" width="0.01" height="6.98"/>
        <rect x="34.99" y="14.04" width="0.01" height="6.98"/>
        <rect x="35.01" y="14.04" width="0.01" height="6.98"/>
        <rect x="35.02" y="14.04" width="0.01" height="6.98"/>
        <rect x="35.03" y="14.04" width="0.01" height="6.98"/>
        <rect x="35.04" y="14.04" width="0.01" height="6.98"/>
        <rect x="35.05" y="14.04" width="0.01" height="6.98"/>
        <rect x="35.07" y="14.04" width="0.01" height="6.98"/>
        <rect x="35.08" y="14.04" width="0.01" height="6.98"/>
        <rect x="35.09" y="14.04" width="0.01" height="6.98"/>
        <rect x="35.1" y="14.04" width="0.01" height="6.98"/>
        <rect x="35.12" y="14.04" width="0.01" height="6.98"/>
        <rect x="35.13" y="14.04" width="0.01" height="6.98"/>
        <rect x="35.14" y="14.04" width="0.01" height="6.98"/>
        <rect x="35.15" y="14.04" width="0.01" height="6.98"/>
        <rect x="35.17" y="14.04" width="0.01" height="6.98"/>
        <rect x="35.18" y="14.04" width="0.01" height="6.98"/>
        <rect x="35.19" y="14.04" width="0.01" height="6.98"/>
        <rect x="35.2" y="14.04" width="0.01" height="6.98"/>
        <rect x="35.22" y="14.04" width="0.03" height="6.98"/>
        <rect x="35.25" y="14.04" width="0.03" height="6.98"/>
        <rect x="35.28" y="14.04" width="0.03" height="6.98"/>
        <rect x="35.31" y="14.04" width="0.03" height="6.98"/>
        <rect x="35.34" y="14.04" width="0.03" height="6.98"/>
        <rect x="35.37" y="14.04" width="0.03" height="6.98"/>
        <rect x="35.4" y="14.04" width="0.03" height="6.98"/>
        <rect x="35.43" y="14.04" width="0.03" height="6.98"/>
        <rect x="35.46" y="14.04" width="0.03" height="6.98"/>
        <rect x="35.49" y="14.04" width="0.03" height="6.98"/>
        <rect x="35.52" y="14.04" width="0.03" height="6.98"/>
        <rect x="35.55" y="14.04" width="0.03" height="6.98"/>
        <rect x="35.58" y="14.04" width="0.03" height="6.98"/>
        <rect x="35.61" y="14.04" width="0.03" height="6.98"/>
        <rect x="35.64" y="14.04" width="0.03" height="6.98"/>
        <rect x="35.67" y="14.04" width="0.03" height="6.98"/>
        <rect x="35.71" y="14.04" width="0.03" height="6.98"/>
        <rect x="35.74" y="14.04" width="0.03" height="6.98"/>
        <rect x="35.77" y="14.04" width="0.03" height="6.98"/>
        <rect x="35.8" y="14.04" width="0.03" height="6.98"/>
        <rect x="35.83" y="14.04" width="0.03" height="6.98"/>
        <rect x="35.86" y="14.04" width="0.03" height="6.98"/>
        <rect x="35.89" y="14.04" width="0.03" height="6.98"/>
        <rect x="35.92" y="14.04" width="0.03" height="6.98"/>
        <rect x="35.95" y="14.04" width="0.03" height="6.98"/>
        <rect x="35.98" y="14.04" width="0.03" height="6.98"/>
        <rect x="36.01" y="14.04" width="0.03" height="6.98"/>
        <rect x="36.04" y="14.04" width="0.03" height="6.98"/>
        <rect x="36.07" y="14.04" width="0.03" height="6.98"/>
        <rect x="36.1" y="14.04" width="0.03" height="6.98"/>
        <rect x="36.13" y="14.04" width="0.03" height="6.98"/>
        <rect x="36.16" y="14.04" width="0.03" height="6.98"/>
        <rect x="36.19" y="14.04" width="0.03" height="6.98"/>
        <rect x="36.23" y="14.04" width="0.04" height="6.98"/>
        <rect x="36.27" y="14.04" width="0.04" height="6.98"/>
        <rect x="36.31" y="14.04" width="0.04" height="6.98"/>
        <rect x="36.35" y="14.04" width="0.04" height="6.98"/>
        <rect x="36.39" y="14.04" width="0.04" height="6.98"/>
        <rect x="36.43" y="14.04" width="0.04" height="6.98"/>
        <rect x="36.47" y="14.04" width="0.04" height="6.98"/>
        <rect x="36.51" y="14.04" width="0.04" height="6.98"/>
        <rect x="36.55" y="14.04" width="0.04" height="6.98"/>
        <rect x="36.59" y="14.04" width="0.04" height="6.98"/>
        <rect x="36.63" y="14.04" width="0.04" height="6.98"/>
        <rect x="36.67" y="14.04" width="0.04" height="6.98"/>
        <rect x="36.71" y="14.04" width="0.04" height="6.98"/>
        <rect x="36.75" y="14.04" width="0.04" height="6.98"/>
        <rect x="36.79" y="14.04" width="0.04" height="6.98"/>
        <rect x="36.83" y="14.04" width="0.04" height="6.98"/>
        <rect x="36.87" y="14.04" width="0.04" height="6.98"/>
        <rect x="36.91" y="14.04" width="0.04" height="6.98"/>
        <rect x="36.95" y="14.04" width="0.04" height="6.98"/>
        <rect x="36.99" y="14.04" width="0.04" height="6.98"/>
        <rect x="37.03" y="14.04" width="0.04" height="6.98"/>
        <rect x="37.07" y="14.04" width="0.04" height="6.98"/>
        <rect x="37.11" y="14.04" width="0.04" height="6.98"/>
        <rect x="37.15" y="14.04" width="0.04" height="6.98"/>
        <rect x="37.2" y="14.04" width="0.04" height="6.98"/>
        <rect x="37.24" y="14.04" width="0.04" height="6.98"/>
        <rect x="37.28" y="14.04" width="0.04" height="6.98"/>
        <rect x="37.32" y="14.04" width="0.04" height="6.98"/>
        <rect x="37.36" y="14.04" width="0.04" height="6.98"/>
        <rect x="37.4" y="14.04" width="0.04" height="6.98"/>
        <rect x="37.45" y="14.04" width="0.04" height="6.98"/>
        <rect x="37.49" y="14.04" width="0.04" height="6.98"/>
        <rect x="37.53" y="14.04" width="0.04" height="6.98"/>
        <rect x="37.57" y="14.04" width="0.04" height="6.98"/>
        <rect x="37.62" y="14.04" width="0.04" height="6.98"/>
        <rect x="37.66" y="14.04" width="0.04" height="6.98"/>
        <rect x="37.7" y="14.04" width="0.04" height="6.98"/>
        <rect x="37.74" y="14.04" width="0.04" height="6.98"/>
        <rect x="37.79" y="14.04" width="0.04" height="6.98"/>
        <rect x="37.83" y="14.04" width="0.04" height="6.98"/>
        <rect x="37.87" y="14.04" width="0.04" height="6.98"/>
        <rect x="37.91" y="14.04" width="0.04" height="6.98"/>
        <rect x="37.96" y="14.04" width="0.04" height="6.98"/>
        <rect x="38" y="14.04" width="0.04" height="6.98"/>
        <rect x="38.04" y="14.04" width="0.04" height="6.98"/>
        <rect x="38.08" y="14.04" width="0.04" height="6.98"/>
        <rect x="38.12" y="14.04" width="0.04" height="6.98"/>
        <rect x="38.17" y="14.04" width="0.04" height="6.98"/>
        <rect x="38.21" y="14.04" width="0.04" height="6.98"/>
        <rect x="38.25" y="14.04" width="0.04" height="6.98"/>
        <rect x="38.29" y="14.04" width="0.04" height="6.98"/>
        <rect x="38.34" y="14.04" width="0.04" height="6.98"/>
        <rect x="38.38" y="14.04" width="0.04" height="6.98"/>
        <rect x="38.42" y="14.04" width="0.04" height="6.98"/>
        <rect x="38.46" y="14.04" width="0.04" height="6.98"/>
        <rect x="38.51" y="14.04" width="0.04" height="6.98"/>
        <rect x="38.55" y="14.04" width="0.04" height="6.98"/>
        <rect x="38.59" y="14.04" width="0.04" height="6.98"/>
        <rect x="38.63" y="14.04" width="0.04" height="6.98"/>
        <rect x="38.68" y="14.04" width="0.04" height="6.98"/>
        <rect x="38.72" y="14.04" width="0.04" height="6.98"/>
        <rect x="38.76" y="14.04" width="0.04" height="6.98"/>
        <rect x="38.8" y="14.04" width="0.04" height="6.98"/>
        <rect x="38.84" y="14.04" width="0.04" height="6.98"/>
        <rect x="38.89" y="14.04" width="0.04" height="6.98"/>
        <rect x="38.93" y="14.04" width="0.04" height="6.98"/>
        <rect x="38.97" y="14.04" width="0.04" height="6.98"/>
        <rect x="39.01" y="14.04" width="0.04" height="6.98"/>
        <rect x="39.06" y="14.04" width="0.04" height="6.98"/>
        <rect x="39.1" y="14.04" width="0.04" height="6.98"/>
        <rect x="39.14" y="14.04" width="0.04" height="6.98"/>
        <rect x="39.18" y="14.04" width="0.04" height="6.98"/>
        <rect x="39.23" y="14.04" width="0.04" height="6.98"/>
        <rect x="39.27" y="14.04" width="0.04" height="6.98"/>
        <rect x="39.31" y="14.04" width="0.04" height="6.98"/>
        <rect x="39.35" y="14.04" width="0.04" height="6.98"/>
        <rect x="39.39" y="14.04" width="0.04" height="6.98"/>
        <rect x="39.44" y="14.04" width="0.04" height="6.98"/>
        <rect x="39.48" y="14.04" width="0.02" height="6.98"/>
        <rect x="39.5" y="14.04" width="0.02" height="6.98"/>
        <rect x="39.52" y="14.04" width="0.02" height="6.98"/>
        <rect x="39.53" y="14.04" width="0.02" height="6.98"/>
        <rect x="39.55" y="14.04" width="0.02" height="6.98"/>
        <rect x="39.57" y="14.04" width="0.02" height="6.98"/>
        <rect x="39.59" y="14.04" width="0.02" height="6.98"/>
        <rect x="39.61" y="14.04" width="0.02" height="6.98"/>
        <rect x="39.63" y="14.04" width="0.02" height="6.98"/>
        <rect x="39.64" y="14.04" width="0.02" height="6.98"/>
        <rect x="39.66" y="14.04" width="0.02" height="6.98"/>
        <rect x="39.68" y="14.04" width="0.02" height="6.98"/>
        <rect x="39.7" y="14.04" width="0.02" height="6.98"/>
        <rect x="39.72" y="14.04" width="0.02" height="6.98"/>
        <rect x="39.74" y="14.04" width="0.02" height="6.98"/>
        <rect x="39.75" y="14.04" width="0.02" height="6.98"/>
        <rect x="39.77" y="14.04" width="0.02" height="6.98"/>
        <rect x="39.79" y="14.04" width="0.02" height="6.98"/>
        <rect x="39.81" y="14.04" width="0.02" height="6.98"/>
        <rect x="39.83" y="14.04" width="0.02" height="6.98"/>
        <rect x="39.84" y="14.04" width="0.02" height="6.98"/>
        <rect x="39.86" y="14.04" width="0.02" height="6.98"/>
        <rect x="39.88" y="14.04" width="0.02" height="6.98"/>
        <rect x="39.9" y="14.04" width="0.02" height="6.98"/>
        <rect x="39.92" y="14.04" width="0.02" height="6.98"/>
        <rect x="39.94" y="14.04" width="0.02" height="6.98"/>
        <rect x="39.95" y="14.04" width="0.02" height="6.98"/>
        <rect x="39.97" y="14.04" width="0.02" height="6.98"/>
        <rect x="39.99" y="14.04" width="0.02" height="6.98"/>
        <rect x="40.01" y="14.04" width="0.02" height="6.98"/>
        <rect x="40.03" y="14.04" width="0.02" height="6.98"/>
        <rect x="40.05" y="14.04" width="0.02" height="6.98"/>
        <rect x="40.06" y="14.04" width="0.02" height="6.98"/>
        <rect x="40.08" y="14.04" width="0.02" height="6.98"/>
        <rect x="40.1" y="14.04" width="0.02" height="6.98"/>
        <rect x="40.12" y="14.04" width="0.02" height="6.98"/>
        <rect x="40.14" y="14.04" width="0.02" height="6.98"/>
        <rect x="40.15" y="14.04" width="0.02" height="6.98"/>
        <rect x="40.17" y="14.04" width="0.02" height="6.98"/>
        <rect x="40.19" y="14.04" width="0.02" height="6.98"/>
        <rect x="40.21" y="14.04" width="0.02" height="6.98"/>
        <rect x="40.23" y="14.04" width="0.02" height="6.98"/>
        <rect x="40.25" y="14.04" width="0.02" height="6.98"/>
        <rect x="40.26" y="14.04" width="0.02" height="6.98"/>
        <rect x="40.28" y="14.04" width="0.02" height="6.98"/>
        <rect x="40.3" y="14.04" width="0.02" height="6.98"/>
        <rect x="40.32" y="14.04" width="0.02" height="6.98"/>
        <rect x="40.34" y="14.04" width="0.02" height="6.98"/>
        <rect x="40.36" y="14.04" width="0.02" height="6.98"/>
        <rect x="40.37" y="14.04" width="0.02" height="6.98"/>
        <rect x="40.39" y="14.04" width="0.02" height="6.98"/>
        <rect x="40.41" y="14.04" width="0.02" height="6.98"/>
        <rect x="40.43" y="14.04" width="0.02" height="6.98"/>
        <rect x="40.45" y="14.04" width="0.02" height="6.98"/>
        <rect x="40.46" y="14.04" width="0.02" height="6.98"/>
        <rect x="40.48" y="14.04" width="0.02" height="6.98"/>
        <rect x="40.5" y="14.04" width="0.02" height="6.98"/>
        <rect x="40.52" y="14.04" width="0.02" height="6.98"/>
        <rect x="40.54" y="14.04" width="0.02" height="6.98"/>
        <rect x="40.56" y="14.04" width="0.02" height="6.98"/>
        <rect x="40.57" y="14.04" width="0.02" height="6.98"/>
        <rect x="40.59" y="14.04" width="0.02" height="6.98"/>
        <rect x="40.61" y="14.04" width="0.02" height="6.98"/>
        <rect x="40.63" y="14.04" width="0.02" height="6.98"/>
        <rect x="40.65" y="14.04" width="0.02" height="6.98"/>
        <rect x="40.67" y="14.04" width="0.02" height="6.98"/>
        <rect x="40.68" y="14.04" width="0.02" height="6.98"/>
        <rect x="40.7" y="14.04" width="0.02" height="6.98"/>
        <rect x="40.72" y="14.04" width="0.02" height="6.98"/>
        <rect x="40.74" y="14.04" width="0.02" height="6.98"/>
        <rect x="40.76" y="14.04" width="0.02" height="6.98"/>
        <rect x="40.77" y="14.04" width="0.02" height="6.98"/>
        <rect x="40.79" y="14.04" width="0.02" height="6.98"/>
        <rect x="40.81" y="14.04" width="0.02" height="6.98"/>
        <rect x="40.83" y="14.04" width="0.02" height="6.98"/>
        <rect x="40.85" y="14.04" width="0.02" height="6.98"/>
        <rect x="40.87" y="14.04" width="0.02" height="6.98"/>
        <rect x="40.88" y="14.04" width="0.02" height="6.98"/>
        <rect x="40.9" y="14.04" width="0.02" height="6.98"/>
        <rect x="40.92" y="14.04" width="0.02" height="6.98"/>
        <rect x="40.94" y="14.04" width="0.02" height="6.98"/>
        <rect x="40.96" y="14.04" width="0.02" height="6.98"/>
        <rect x="40.98" y="14.04" width="0.02" height="6.98"/>
        <rect x="40.99" y="14.04" width="0.02" height="6.98"/>
        <rect x="41.01" y="14.04" width="0.02" height="6.98"/>
        <rect x="41.03" y="14.04" width="0.02" height="6.98"/>
        <rect x="41.05" y="14.04" width="0.02" height="6.98"/>
        <rect x="41.07" y="14.04" width="0.02" height="6.98"/>
        <rect x="41.09" y="14.04" width="0.02" height="6.98"/>
        <rect x="41.1" y="14.04" width="0.02" height="6.98"/>
        <rect x="41.12" y="14.04" width="0.02" height="6.98"/>
        <rect x="41.14" y="14.04" width="0.02" height="6.98"/>
        <rect x="41.16" y="14.04" width="0.02" height="6.98"/>
        <rect x="41.18" y="14.04" width="0.02" height="6.98"/>
        <rect x="41.19" y="14.04" width="0.02" height="6.98"/>
        <rect x="41.21" y="14.04" width="0.02" height="6.98"/>
        <rect x="41.23" y="14.04" width="0.02" height="6.98"/>
        <rect x="41.25" y="14.04" width="0.02" height="6.98"/>
        <rect x="41.27" y="14.04" width="0.02" height="6.98"/>
        <rect x="41.29" y="14.04" width="0.02" height="6.98"/>
        <rect x="41.3" y="14.04" width="0.02" height="6.98"/>
        <rect x="41.32" y="14.04" width="0.02" height="6.98"/>
        <rect x="41.34" y="14.04" width="0.02" height="6.98"/>
        <rect x="41.36" y="14.04" width="0.02" height="6.98"/>
        <rect x="41.38" y="14.04" width="0.02" height="6.98"/>
        <rect x="41.4" y="14.04" width="0.02" height="6.98"/>
        <rect x="41.41" y="14.04" width="0.02" height="6.98"/>
        <rect x="41.43" y="14.04" width="0.02" height="6.98"/>
        <rect x="41.45" y="14.04" width="0.02" height="6.98"/>
        <rect x="41.47" y="14.04" width="0.02" height="6.98"/>
        <rect x="41.49" y="14.04" width="0.02" height="6.98"/>
        <rect x="41.5" y="14.04" width="0.02" height="6.98"/>
        <rect x="41.52" y="14.04" width="0.02" height="6.98"/>
        <rect x="41.54" y="14.04" width="0.02" height="6.98"/>
        <rect x="41.56" y="14.04" width="0.02" height="6.98"/>
        <rect x="41.58" y="14.04" width="0.02" height="6.98"/>
        <rect x="41.6" y="14.04" width="0.02" height="6.98"/>
        <rect x="41.61" y="14.04" width="0.02" height="6.98"/>
        <rect x="41.63" y="14.04" width="0.02" height="6.98"/>
        <rect x="41.65" y="14.04" width="0.02" height="6.98"/>
        <rect x="41.67" y="14.04" width="0.02" height="6.98"/>
        <rect x="41.69" y="14.04" width="0.02" height="6.98"/>
        <rect x="41.71" y="14.04" width="0.02" height="6.98"/>
        <rect x="41.72" y="14.04" width="0.03" height="6.98"/>
        <rect x="41.75" y="14.04" width="0.03" height="6.98"/>
        <rect x="41.78" y="14.04" width="0.03" height="6.98"/>
        <rect x="41.8" y="14.04" width="0.03" height="6.98"/>
        <rect x="41.83" y="14.04" width="0.03" height="6.98"/>
        <rect x="41.86" y="14.04" width="0.03" height="6.98"/>
        <rect x="41.89" y="14.04" width="0.03" height="6.98"/>
        <rect x="41.91" y="14.04" width="0.03" height="6.98"/>
        <rect x="41.94" y="14.04" width="0.03" height="6.98"/>
        <rect x="41.97" y="14.04" width="0.03" height="6.98"/>
        <rect x="41.99" y="14.04" width="0.03" height="6.98"/>
        <rect x="42.02" y="14.04" width="0.03" height="6.98"/>
        <rect x="42.05" y="14.04" width="0.03" height="6.98"/>
        <rect x="42.07" y="14.04" width="0.03" height="6.98"/>
        <rect x="42.1" y="14.04" width="0.03" height="6.98"/>
        <rect x="42.13" y="14.04" width="0.03" height="6.98"/>
        <rect x="42.16" y="14.04" width="0.03" height="6.98"/>
        <rect x="42.18" y="14.04" width="0.03" height="6.98"/>
        <rect x="42.21" y="14.04" width="0.03" height="6.98"/>
        <rect x="42.24" y="14.04" width="0.03" height="6.98"/>
        <rect x="42.26" y="14.04" width="0.03" height="6.98"/>
        <rect x="42.29" y="14.04" width="0.03" height="6.98"/>
        <rect x="42.32" y="14.04" width="0.03" height="6.98"/>
        <rect x="42.34" y="14.04" width="0.03" height="6.98"/>
        <rect x="42.37" y="14.04" width="0.03" height="6.98"/>
        <rect x="42.4" y="14.04" width="0.03" height="6.98"/>
        <rect x="42.43" y="14.04" width="0.03" height="6.98"/>
        <rect x="42.45" y="14.04" width="0.03" height="6.98"/>
        <rect x="42.48" y="14.04" width="0.03" height="6.98"/>
        <rect x="42.51" y="14.04" width="0.03" height="6.98"/>
        <rect x="42.53" y="14.04" width="0.03" height="6.98"/>
        <rect x="42.56" y="14.04" width="0.03" height="6.98"/>
        <rect x="42.59" y="14.04" width="0.03" height="6.98"/>
        <rect x="42.62" y="14.04" width="0.03" height="6.98"/>
        <rect x="42.64" y="14.04" width="0.03" height="6.98"/>
        <rect x="42.67" y="14.04" width="0.03" height="6.98"/>
        <rect x="42.7" y="14.04" width="0.03" height="6.98"/>
        <rect x="42.72" y="14.04" width="0.03" height="6.98"/>
        <rect x="42.75" y="14.04" width="0.03" height="6.98"/>
        <rect x="42.78" y="14.04" width="0.03" height="6.98"/>
        <rect x="42.8" y="14.04" width="0.03" height="6.98"/>
        <rect x="42.83" y="14.04" width="0.03" height="6.98"/>
        <rect x="42.86" y="14.04" width="0.03" height="6.98"/>
        <rect x="42.89" y="14.04" width="0.03" height="6.98"/>
        <rect x="42.91" y="14.04" width="0.03" height="6.98"/>
        <rect x="42.94" y="14.04" width="0.03" height="6.98"/>
        <rect x="42.97" y="14.04" width="0.03" height="6.98"/>
        <rect x="42.99" y="14.04" width="0.03" height="6.98"/>
        <rect x="43.02" y="14.04" width="0.03" height="6.98"/>
        <rect x="43.05" y="14.04" width="0.03" height="6.98"/>
        <rect x="43.07" y="14.04" width="0.03" height="6.98"/>
        <rect x="43.1" y="14.04" width="0.03" height="6.98"/>
        <rect x="43.13" y="14.04" width="0.03" height="6.98"/>
        <rect x="43.16" y="14.04" width="0.03" height="6.98"/>
        <rect x="43.18" y="14.04" width="0.03" height="6.98"/>
        <rect x="43.22" y="14.04" width="0.03" height="6.98"/>
        <rect x="43.25" y="14.04" width="0.03" height="6.98"/>
        <rect x="43.29" y="14.04" width="0.03" height="6.98"/>
        <rect x="43.32" y="14.04" width="0.03" height="6.98"/>
        <rect x="43.36" y="14.04" width="0.03" height="6.98"/>
        <rect x="43.39" y="14.04" width="0.03" height="6.98"/>
        <rect x="43.42" y="14.04" width="0.03" height="6.98"/>
        <rect x="43.46" y="14.04" width="0.03" height="6.98"/>
        <rect x="43.49" y="14.04" width="0.03" height="6.98"/>
        <rect x="43.53" y="14.04" width="0.01" height="6.98"/>
        <path d="M34.29,12.34v0Z" transform="translate(-0.64 -0.33)"/>
        <rect x="33.64" y="12.01" width="0.01" height="11.22"/>
        <rect x="33.66" y="12.01" width="0.01" height="11.22"/>
        <rect x="33.67" y="12.01" width="0.01" height="11.22"/>
        <rect x="33.68" y="12.01" width="0.01" height="11.22"/>
        <rect x="33.69" y="12.01" width="0.01" height="11.22"/>
        <rect x="33.71" y="12.01" width="0.01" height="11.22"/>
        <rect x="33.72" y="12.01" width="0.01" height="11.22"/>
        <rect x="33.73" y="12.01" width="0.01" height="11.22"/>
        <rect x="33.74" y="12.01" width="0.01" height="11.22"/>
        <rect x="33.76" y="12.01" width="0.01" height="11.22"/>
        <rect x="33.77" y="12.01" width="0.01" height="11.22"/>
        <rect x="33.78" y="12.01" width="0.01" height="11.22"/>
        <rect x="33.79" y="12.01" width="0.01" height="11.22"/>
        <rect x="33.81" y="12.01" width="0.01" height="11.22"/>
        <rect x="33.82" y="12.01" width="0.01" height="11.22"/>
        <rect x="33.83" y="12.01" width="0.01" height="11.22"/>
        <rect x="33.84" y="12.01" width="0.01" height="11.22"/>
        <rect x="33.86" y="12.01" width="0.01" height="11.22"/>
        <rect x="33.87" y="12.01" width="0.01" height="11.22"/>
        <rect x="33.88" y="12.01" width="0.01" height="11.22"/>
        <rect x="33.89" y="12.01" width="0.01" height="11.22"/>
        <rect x="33.9" y="12.01" width="0.01" height="11.22"/>
        <rect x="33.92" y="12.01" width="0.01" height="11.22"/>
        <rect x="33.93" y="12.01" width="0.01" height="11.22"/>
        <rect x="33.94" y="12.01" width="0.01" height="11.22"/>
        <rect x="33.95" y="12.01" width="0.01" height="11.22"/>
        <rect x="33.97" y="12.01" width="0.01" height="11.22"/>
        <rect x="33.98" y="12.01" width="0.01" height="11.22"/>
        <rect x="33.99" y="12.01" width="0.01" height="11.22"/>
        <rect x="34" y="12.01" width="0.01" height="11.22"/>
        <rect x="34.02" y="12.01" width="0.01" height="11.22"/>
        <rect x="34.03" y="12.01" width="0.01" height="11.22"/>
        <rect x="34.04" y="12.01" width="0.01" height="11.22"/>
        <rect x="34.05" y="12.01" width="0.01" height="11.22"/>
        <rect x="34.07" y="12.01" width="0.01" height="11.22"/>
        <rect x="34.08" y="12.01" width="0.01" height="11.22"/>
        <rect x="34.09" y="12.01" width="0.01" height="11.22"/>
        <rect x="34.1" y="12.01" width="0.01" height="11.22"/>
        <rect x="34.11" y="12.01" width="0.01" height="11.22"/>
        <rect x="34.13" y="12.01" width="0.01" height="11.22"/>
        <rect x="34.14" y="12.01" width="0.01" height="11.22"/>
        <rect x="34.15" y="12.01" width="0.01" height="11.22"/>
        <rect x="34.16" y="12.01" width="0.01" height="11.22"/>
        <rect x="34.18" y="12.01" width="0.01" height="11.22"/>
        <rect x="34.19" y="12.01" width="0.01" height="11.22"/>
        <rect x="34.2" y="12.01" width="0.01" height="11.22"/>
        <rect x="34.21" y="12.01" width="0.01" height="11.22"/>
        <rect x="34.23" y="12.01" width="0.01" height="11.22"/>
        <rect x="34.24" y="12.01" width="0.01" height="11.22"/>
        <rect x="34.25" y="12.01" width="0.01" height="11.22"/>
        <rect x="34.26" y="12.01" width="0.01" height="11.22"/>
        <rect x="34.28" y="12.01" width="0.01" height="11.22"/>
        <rect x="34.29" y="12.01" width="0.01" height="11.22"/>
        <rect x="34.3" y="12.01" width="0.01" height="11.22"/>
        <rect x="34.31" y="12.01" width="0.01" height="11.22"/>
        <rect x="34.33" y="12.01" width="0.01" height="11.22"/>
        <rect x="34.34" y="12.01" width="0.01" height="11.22"/>
        <rect x="34.35" y="12.01" width="0.01" height="11.22"/>
        <rect x="34.36" y="12.01" width="0.01" height="11.22"/>
        <rect x="34.37" y="12.01" width="0.01" height="11.22"/>
        <rect x="34.39" y="12.01" width="0.01" height="11.22"/>
        <rect x="34.4" y="12.01" width="0.01" height="11.22"/>
        <rect x="34.41" y="12.01" width="0.01" height="11.22"/>
        <rect x="34.42" y="12.01" width="0.01" height="11.22"/>
        <rect x="34.44" y="12.01" width="0.01" height="11.22"/>
        <rect x="34.45" y="12.01" width="0.01" height="11.22"/>
        <rect x="34.46" y="12.01" width="0.01" height="11.22"/>
        <rect x="34.47" y="12.01" width="0.01" height="11.22"/>
        <rect x="34.49" y="12.01" width="0.01" height="11.22"/>
        <rect x="34.5" y="12.01" width="0.01" height="11.22"/>
        <rect x="34.51" y="12.01" width="0.01" height="11.22"/>
        <rect x="34.52" y="12.01" width="0.01" height="11.22"/>
        <rect x="34.54" y="12.01" width="0.01" height="11.22"/>
        <rect x="34.55" y="12.01" width="0.01" height="11.22"/>
        <rect x="34.56" y="12.01" width="0.01" height="11.22"/>
        <rect x="34.57" y="12.01" width="0.01" height="11.22"/>
        <rect x="34.58" y="12.01" width="0.01" height="11.22"/>
        <rect x="34.6" y="12.01" width="0.01" height="11.22"/>
        <rect x="34.61" y="12.01" width="0.01" height="11.22"/>
        <rect x="34.62" y="12.01" width="0.01" height="11.22"/>
        <rect x="34.63" y="12.01" width="0.01" height="11.22"/>
        <rect x="34.65" y="12.01" width="0.01" height="11.22"/>
        <rect x="34.66" y="12.01" width="0.01" height="11.22"/>
        <rect x="34.67" y="12.01" width="0.01" height="11.22"/>
        <rect x="34.68" y="12.01" width="0.01" height="11.22"/>
        <rect x="34.7" y="12.01" width="0.01" height="11.22"/>
        <rect x="34.71" y="12.01" width="0.01" height="11.22"/>
        <rect x="34.72" y="12.01" width="0.01" height="11.22"/>
        <rect x="34.73" y="12.01" width="0.01" height="11.22"/>
        <rect x="34.75" y="12.01" width="0.01" height="11.22"/>
        <rect x="34.76" y="12.01" width="0.01" height="11.22"/>
        <rect x="34.77" y="12.01" width="0.01" height="11.22"/>
        <rect x="34.78" y="12.01" width="0.01" height="11.22"/>
        <rect x="34.8" y="12.01" width="0.01" height="11.22"/>
        <rect x="34.81" y="12.01" width="0.01" height="11.22"/>
        <rect x="34.82" y="12.01" width="0.01" height="11.22"/>
        <rect x="34.83" y="12.01" width="0.01" height="11.22"/>
        <rect x="34.84" y="12.01" width="0.01" height="11.22"/>
        <rect x="34.86" y="12.01" width="0.01" height="11.22"/>
        <rect x="34.87" y="12.01" width="0.01" height="11.22"/>
        <rect x="34.88" y="12.01" width="0.01" height="11.22"/>
        <rect x="34.89" y="12.01" width="0.01" height="11.22"/>
        <rect x="34.91" y="12.01" width="0.01" height="11.22"/>
        <rect x="34.92" y="12.01" width="0.01" height="11.22"/>
        <rect x="34.93" y="12.01" width="0.01" height="11.22"/>
        <rect x="34.94" y="12.01" width="0.01" height="11.22"/>
        <rect x="34.96" y="12.01" width="0.01" height="11.22"/>
        <rect x="34.97" y="12.01" width="0.01" height="11.22"/>
        <rect x="34.98" y="12.01" width="0.01" height="11.22"/>
        <rect x="34.99" y="12.01" width="0.01" height="11.22"/>
        <rect x="35.01" y="12.01" width="0.01" height="11.22"/>
        <rect x="35.02" y="12.01" width="0.01" height="11.22"/>
        <rect x="35.03" y="12.01" width="0.01" height="11.22"/>
        <rect x="35.04" y="12.01" width="0.01" height="11.22"/>
        <rect x="35.05" y="12.01" width="0.01" height="11.22"/>
        <rect x="35.07" y="12.01" width="0.01" height="11.22"/>
        <rect x="35.08" y="12.01" width="0.01" height="11.22"/>
        <rect x="35.09" y="12.01" width="0.01" height="11.22"/>
        <rect x="35.1" y="12.01" width="0.01" height="11.22"/>
        <rect x="35.12" y="12.01" width="0.01" height="11.22"/>
        <rect x="35.13" y="12.01" width="0.01" height="11.22"/>
        <rect x="35.14" y="12.01" width="0.01" height="11.22"/>
        <rect x="35.15" y="12.01" width="0.01" height="11.22"/>
        <rect x="35.17" y="12.01" width="0.01" height="11.22"/>
        <rect x="35.18" y="12.01" width="0.01" height="11.22"/>
        <rect x="35.19" y="12.01" width="0.01" height="11.22"/>
        <rect x="35.2" y="12.01" width="0.01" height="11.22"/>
        <rect x="35.22" y="12.01" width="0.03" height="11.22"/>
        <rect x="35.25" y="12.01" width="0.03" height="11.22"/>
        <rect x="35.28" y="12.01" width="0.03" height="11.22"/>
        <rect x="35.31" y="12.01" width="0.03" height="11.22"/>
        <rect x="35.34" y="12.01" width="0.03" height="11.22"/>
        <rect x="35.37" y="12.01" width="0.03" height="11.22"/>
        <rect x="35.4" y="12.01" width="0.03" height="11.22"/>
        <rect x="35.43" y="12.01" width="0.03" height="11.22"/>
        <rect x="35.46" y="12.01" width="0.03" height="11.22"/>
        <rect x="35.49" y="12.01" width="0.03" height="11.22"/>
        <rect x="35.52" y="12.01" width="0.03" height="11.22"/>
        <rect x="35.55" y="12.01" width="0.03" height="11.22"/>
        <rect x="35.58" y="12.01" width="0.03" height="11.22"/>
        <rect x="35.61" y="12.01" width="0.03" height="11.22"/>
        <rect x="35.64" y="12.01" width="0.03" height="11.22"/>
        <rect x="35.67" y="12.01" width="0.03" height="11.22"/>
        <rect x="35.71" y="12.01" width="0.03" height="11.22"/>
        <rect x="35.74" y="12.01" width="0.03" height="11.22"/>
        <rect x="35.77" y="12.01" width="0.03" height="11.22"/>
        <rect x="35.8" y="12.01" width="0.03" height="11.22"/>
        <rect x="35.83" y="12.01" width="0.03" height="11.22"/>
        <rect x="35.86" y="12.01" width="0.03" height="11.22"/>
        <rect x="35.89" y="12.01" width="0.03" height="11.22"/>
        <rect x="35.92" y="12.01" width="0.03" height="11.22"/>
        <rect x="35.95" y="12.01" width="0.03" height="11.22"/>
        <rect x="35.98" y="12.01" width="0.03" height="11.22"/>
        <rect x="36.01" y="12.01" width="0.03" height="11.22"/>
        <rect x="36.04" y="12.01" width="0.03" height="11.22"/>
        <rect x="36.07" y="12.01" width="0.03" height="11.22"/>
        <rect x="36.1" y="12.01" width="0.03" height="11.22"/>
        <rect x="36.13" y="12.01" width="0.03" height="11.22"/>
        <rect x="36.16" y="12.01" width="0.03" height="11.22"/>
        <rect x="36.19" y="12.01" width="0.03" height="11.22"/>
        <rect x="36.23" y="12.01" width="0.04" height="11.22"/>
        <rect x="36.27" y="12.01" width="0.04" height="11.22"/>
        <rect x="36.31" y="12.01" width="0.04" height="11.22"/>
        <rect x="36.35" y="12.01" width="0.04" height="11.22"/>
        <rect x="36.39" y="12.01" width="0.04" height="11.22"/>
        <rect x="36.43" y="12.01" width="0.04" height="11.22"/>
        <rect x="36.47" y="12.01" width="0.04" height="11.22"/>
        <rect x="36.51" y="12.01" width="0.04" height="11.22"/>
        <rect x="36.55" y="12.01" width="0.04" height="11.22"/>
        <rect x="36.59" y="12.01" width="0.04" height="11.22"/>
        <rect x="36.63" y="12.01" width="0.04" height="11.22"/>
        <rect x="36.67" y="12.01" width="0.04" height="11.22"/>
        <rect x="36.71" y="12.01" width="0.04" height="11.22"/>
        <rect x="36.75" y="12.01" width="0.04" height="11.22"/>
        <rect x="36.79" y="12.01" width="0.04" height="11.22"/>
        <rect x="36.83" y="12.01" width="0.04" height="11.22"/>
        <rect x="36.87" y="12.01" width="0.04" height="11.22"/>
        <rect x="36.91" y="12.01" width="0.04" height="11.22"/>
        <rect x="36.95" y="12.01" width="0.04" height="11.22"/>
        <rect x="36.99" y="12.01" width="0.04" height="11.22"/>
        <rect x="37.03" y="12.01" width="0.04" height="11.22"/>
        <rect x="37.07" y="12.01" width="0.04" height="11.22"/>
        <rect x="37.11" y="12.01" width="0.04" height="11.22"/>
        <rect x="37.15" y="12.01" width="0.04" height="11.22"/>
        <rect x="37.2" y="12.01" width="0.04" height="11.22"/>
        <rect x="37.24" y="12.01" width="0.04" height="11.22"/>
        <rect x="37.28" y="12.01" width="0.04" height="11.22"/>
        <rect x="37.32" y="12.01" width="0.04" height="11.22"/>
        <rect x="37.36" y="12.01" width="0.04" height="11.22"/>
        <rect x="37.4" y="12.01" width="0.04" height="11.22"/>
        <rect x="37.45" y="12.01" width="0.04" height="11.22"/>
        <rect x="37.49" y="12.01" width="0.04" height="11.22"/>
        <rect x="37.53" y="12.01" width="0.04" height="11.22"/>
        <rect x="37.57" y="12.01" width="0.04" height="11.22"/>
        <rect x="37.62" y="12.01" width="0.04" height="11.22"/>
        <rect x="37.66" y="12.01" width="0.04" height="11.22"/>
        <rect x="37.7" y="12.01" width="0.04" height="11.22"/>
        <rect x="37.74" y="12.01" width="0.04" height="11.22"/>
        <rect x="37.79" y="12.01" width="0.04" height="11.22"/>
        <rect x="37.83" y="12.01" width="0.04" height="11.22"/>
        <rect x="37.87" y="12.01" width="0.04" height="11.22"/>
        <rect x="37.91" y="12.01" width="0.04" height="11.22"/>
        <rect x="37.96" y="12.01" width="0.04" height="11.22"/>
        <rect x="38" y="12.01" width="0.04" height="11.22"/>
        <rect x="38.04" y="12.01" width="0.04" height="11.22"/>
        <rect x="38.08" y="12.01" width="0.04" height="11.22"/>
        <rect x="38.12" y="12.01" width="0.04" height="11.22"/>
        <rect x="38.17" y="12.01" width="0.04" height="11.22"/>
        <rect x="38.21" y="12.01" width="0.04" height="11.22"/>
        <rect x="38.25" y="12.01" width="0.04" height="11.22"/>
        <rect x="38.29" y="12.01" width="0.04" height="11.22"/>
        <rect x="38.34" y="12.01" width="0.04" height="11.22"/>
        <rect x="38.38" y="12.01" width="0.04" height="11.22"/>
        <rect x="38.42" y="12.01" width="0.04" height="11.22"/>
        <rect x="38.46" y="12.01" width="0.04" height="11.22"/>
        <rect x="38.51" y="12.01" width="0.04" height="11.22"/>
        <rect x="38.55" y="12.01" width="0.04" height="11.22"/>
        <rect x="38.59" y="12.01" width="0.04" height="11.22"/>
        <rect x="38.63" y="12.01" width="0.04" height="11.22"/>
        <rect x="38.68" y="12.01" width="0.04" height="11.22"/>
        <rect x="38.72" y="12.01" width="0.04" height="11.22"/>
        <rect x="38.76" y="12.01" width="0.04" height="11.22"/>
        <rect x="38.8" y="12.01" width="0.04" height="11.22"/>
        <rect x="38.84" y="12.01" width="0.04" height="11.22"/>
        <rect x="38.89" y="12.01" width="0.04" height="11.22"/>
        <rect x="38.93" y="12.01" width="0.04" height="11.22"/>
        <rect x="38.97" y="12.01" width="0.04" height="11.22"/>
        <rect x="39.01" y="12.01" width="0.04" height="11.22"/>
        <rect x="39.06" y="12.01" width="0.04" height="11.22"/>
        <rect x="39.1" y="12.01" width="0.04" height="11.22"/>
        <rect x="39.14" y="12.01" width="0.04" height="11.22"/>
        <rect x="39.18" y="12.01" width="0.04" height="11.22"/>
        <rect x="39.23" y="12.01" width="0.04" height="11.22"/>
        <rect x="39.27" y="12.01" width="0.04" height="11.22"/>
        <rect x="39.31" y="12.01" width="0.04" height="11.22"/>
        <rect x="39.35" y="12.01" width="0.04" height="11.22"/>
        <rect x="39.39" y="12.01" width="0.04" height="11.22"/>
        <rect x="39.44" y="12.01" width="0.04" height="11.22"/>
        <rect x="39.48" y="12.01" width="0.02" height="11.22"/>
        <rect x="39.5" y="12.01" width="0.02" height="11.22"/>
        <rect x="39.52" y="12.01" width="0.02" height="11.22"/>
        <rect x="39.53" y="12.01" width="0.02" height="11.22"/>
        <rect x="39.55" y="12.01" width="0.02" height="11.22"/>
        <rect x="39.57" y="12.01" width="0.02" height="11.22"/>
        <rect x="39.59" y="12.01" width="0.02" height="11.22"/>
        <rect x="39.61" y="12.01" width="0.02" height="11.22"/>
        <rect x="39.63" y="12.01" width="0.02" height="11.22"/>
        <rect x="39.64" y="12.01" width="0.02" height="11.22"/>
        <rect x="39.66" y="12.01" width="0.02" height="11.22"/>
        <rect x="39.68" y="12.01" width="0.02" height="11.22"/>
        <rect x="39.7" y="12.01" width="0.02" height="11.22"/>
        <rect x="39.72" y="12.01" width="0.02" height="11.22"/>
        <rect x="39.74" y="12.01" width="0.02" height="11.22"/>
        <rect x="39.75" y="12.01" width="0.02" height="11.22"/>
        <rect x="39.77" y="12.01" width="0.02" height="11.22"/>
        <rect x="39.79" y="12.01" width="0.02" height="11.22"/>
        <rect x="39.81" y="12.01" width="0.02" height="11.22"/>
        <rect x="39.83" y="12.01" width="0.02" height="11.22"/>
        <rect x="39.84" y="12.01" width="0.02" height="11.22"/>
        <rect x="39.86" y="12.01" width="0.02" height="11.22"/>
        <rect x="39.88" y="12.01" width="0.02" height="11.22"/>
        <rect x="39.9" y="12.01" width="0.02" height="11.22"/>
        <rect x="39.92" y="12.01" width="0.02" height="11.22"/>
        <rect x="39.94" y="12.01" width="0.02" height="11.22"/>
        <rect x="39.95" y="12.01" width="0.02" height="11.22"/>
        <rect x="39.97" y="12.01" width="0.02" height="11.22"/>
        <rect x="39.99" y="12.01" width="0.02" height="11.22"/>
        <rect x="40.01" y="12.01" width="0.02" height="11.22"/>
        <rect x="40.03" y="12.01" width="0.02" height="11.22"/>
        <rect x="40.05" y="12.01" width="0.02" height="11.22"/>
        <rect x="40.06" y="12.01" width="0.02" height="11.22"/>
        <rect x="40.08" y="12.01" width="0.02" height="11.22"/>
        <rect x="40.1" y="12.01" width="0.02" height="11.22"/>
        <rect x="40.12" y="12.01" width="0.02" height="11.22"/>
        <rect x="40.14" y="12.01" width="0.02" height="11.22"/>
        <rect x="40.15" y="12.01" width="0.02" height="11.22"/>
        <rect x="40.17" y="12.01" width="0.02" height="11.22"/>
        <rect x="40.19" y="12.01" width="0.02" height="11.22"/>
        <rect x="40.21" y="12.01" width="0.02" height="11.22"/>
        <rect x="40.23" y="12.01" width="0.02" height="11.22"/>
        <rect x="40.25" y="12.01" width="0.02" height="11.22"/>
        <rect x="40.26" y="12.01" width="0.02" height="11.22"/>
        <rect x="40.28" y="12.01" width="0.02" height="11.22"/>
        <rect x="40.3" y="12.01" width="0.02" height="11.22"/>
        <rect x="40.32" y="12.01" width="0.02" height="11.22"/>
        <rect x="40.34" y="12.01" width="0.02" height="11.22"/>
        <rect x="40.36" y="12.01" width="0.02" height="11.22"/>
        <rect x="40.37" y="12.01" width="0.02" height="11.22"/>
        <rect x="40.39" y="12.01" width="0.02" height="11.22"/>
        <rect x="40.41" y="12.01" width="0.02" height="11.22"/>
        <rect x="40.43" y="12.01" width="0.02" height="11.22"/>
        <rect x="40.45" y="12.01" width="0.02" height="11.22"/>
        <rect x="40.46" y="12.01" width="0.02" height="11.22"/>
        <rect x="40.48" y="12.01" width="0.02" height="11.22"/>
        <rect x="40.5" y="12.01" width="0.02" height="11.22"/>
        <rect x="40.52" y="12.01" width="0.02" height="11.22"/>
        <rect x="40.54" y="12.01" width="0.02" height="11.22"/>
        <rect x="40.56" y="12.01" width="0.02" height="11.22"/>
        <rect x="40.57" y="12.01" width="0.02" height="11.22"/>
        <rect x="40.59" y="12.01" width="0.02" height="11.22"/>
        <rect x="40.61" y="12.01" width="0.02" height="11.22"/>
        <rect x="40.63" y="12.01" width="0.02" height="11.22"/>
        <rect x="40.65" y="12.01" width="0.02" height="11.22"/>
        <rect x="40.67" y="12.01" width="0.02" height="11.22"/>
        <rect x="40.68" y="12.01" width="0.02" height="11.22"/>
        <rect x="40.7" y="12.01" width="0.02" height="11.22"/>
        <rect x="40.72" y="12.01" width="0.02" height="11.22"/>
        <rect x="40.74" y="12.01" width="0.02" height="11.22"/>
        <rect x="40.76" y="12.01" width="0.02" height="11.22"/>
        <rect x="40.77" y="12.01" width="0.02" height="11.22"/>
        <rect x="40.79" y="12.01" width="0.02" height="11.22"/>
        <rect x="40.81" y="12.01" width="0.02" height="11.22"/>
        <rect x="40.83" y="12.01" width="0.02" height="11.22"/>
        <rect x="40.85" y="12.01" width="0.02" height="11.22"/>
        <rect x="40.87" y="12.01" width="0.02" height="11.22"/>
        <rect x="40.88" y="12.01" width="0.02" height="11.22"/>
        <rect x="40.9" y="12.01" width="0.02" height="11.22"/>
        <rect x="40.92" y="12.01" width="0.02" height="11.22"/>
        <rect x="40.94" y="12.01" width="0.02" height="11.22"/>
        <rect x="40.96" y="12.01" width="0.02" height="11.22"/>
        <rect x="40.98" y="12.01" width="0.02" height="11.22"/>
        <rect x="40.99" y="12.01" width="0.02" height="11.22"/>
        <rect x="41.01" y="12.01" width="0.02" height="11.22"/>
        <rect x="41.03" y="12.01" width="0.02" height="11.22"/>
        <rect x="41.05" y="12.01" width="0.02" height="11.22"/>
        <rect x="41.07" y="12.01" width="0.02" height="11.22"/>
        <rect x="41.09" y="12.01" width="0.02" height="11.22"/>
        <rect x="41.1" y="12.01" width="0.02" height="11.22"/>
        <rect x="41.12" y="12.01" width="0.02" height="11.22"/>
        <rect x="41.14" y="12.01" width="0.02" height="11.22"/>
        <rect x="41.16" y="12.01" width="0.02" height="11.22"/>
        <rect x="41.18" y="12.01" width="0.02" height="11.22"/>
        <rect x="41.19" y="12.01" width="0.02" height="11.22"/>
        <rect x="41.21" y="12.01" width="0.02" height="11.22"/>
        <rect x="41.23" y="12.01" width="0.02" height="11.22"/>
        <rect x="41.25" y="12.01" width="0.02" height="11.22"/>
        <rect x="41.27" y="12.01" width="0.02" height="11.22"/>
        <rect x="41.29" y="12.01" width="0.02" height="11.22"/>
        <rect x="41.3" y="12.01" width="0.02" height="11.22"/>
        <rect x="41.32" y="12.01" width="0.02" height="11.22"/>
        <rect x="41.34" y="12.01" width="0.02" height="11.22"/>
        <rect x="41.36" y="12.01" width="0.02" height="11.22"/>
        <rect x="41.38" y="12.01" width="0.02" height="11.22"/>
        <rect x="41.4" y="12.01" width="0.02" height="11.22"/>
        <rect x="41.41" y="12.01" width="0.02" height="11.22"/>
        <rect x="41.43" y="12.01" width="0.02" height="11.22"/>
        <rect x="41.45" y="12.01" width="0.02" height="11.22"/>
        <rect x="41.47" y="12.01" width="0.02" height="11.22"/>
        <rect x="41.49" y="12.01" width="0.02" height="11.22"/>
        <rect x="41.5" y="12.01" width="0.02" height="11.22"/>
        <rect x="41.52" y="12.01" width="0.02" height="11.22"/>
        <rect x="41.54" y="12.01" width="0.02" height="11.22"/>
        <rect x="41.56" y="12.01" width="0.02" height="11.22"/>
        <rect x="41.58" y="12.01" width="0.02" height="11.22"/>
        <rect x="41.6" y="12.01" width="0.02" height="11.22"/>
        <rect x="41.61" y="12.01" width="0.02" height="11.22"/>
        <rect x="41.63" y="12.01" width="0.02" height="11.22"/>
        <rect x="41.65" y="12.01" width="0.02" height="11.22"/>
        <rect x="41.67" y="12.01" width="0.02" height="11.22"/>
        <rect x="41.69" y="12.01" width="0.02" height="11.22"/>
        <rect x="41.71" y="12.01" width="0.02" height="11.22"/>
        <rect x="41.72" y="12.01" width="0.03" height="11.22"/>
        <rect x="41.75" y="12.01" width="0.03" height="11.22"/>
        <rect x="41.78" y="12.01" width="0.03" height="11.22"/>
        <rect x="41.8" y="12.01" width="0.03" height="11.22"/>
        <rect x="41.83" y="12.01" width="0.03" height="11.22"/>
        <rect x="41.86" y="12.01" width="0.03" height="11.22"/>
        <rect x="41.89" y="12.01" width="0.03" height="11.22"/>
        <rect x="41.91" y="12.01" width="0.03" height="11.22"/>
        <rect x="41.94" y="12.01" width="0.03" height="11.22"/>
        <rect x="41.97" y="12.01" width="0.03" height="11.22"/>
        <rect x="41.99" y="12.01" width="0.03" height="11.22"/>
        <rect x="42.02" y="12.01" width="0.03" height="11.22"/>
        <rect x="42.05" y="12.01" width="0.03" height="11.22"/>
        <rect x="42.07" y="12.01" width="0.03" height="11.22"/>
        <rect x="42.1" y="12.01" width="0.03" height="11.22"/>
        <rect x="42.13" y="12.01" width="0.03" height="11.22"/>
        <rect x="42.16" y="12.01" width="0.03" height="11.22"/>
        <rect x="42.18" y="12.01" width="0.03" height="11.22"/>
        <rect x="42.21" y="12.01" width="0.03" height="11.22"/>
        <rect x="42.24" y="12.01" width="0.03" height="11.22"/>
        <rect x="42.26" y="12.01" width="0.03" height="11.22"/>
        <rect x="42.29" y="12.01" width="0.03" height="11.22"/>
        <rect x="42.32" y="12.01" width="0.03" height="11.22"/>
        <rect x="42.34" y="12.01" width="0.03" height="11.22"/>
        <rect x="42.37" y="12.01" width="0.03" height="11.22"/>
        <rect x="42.4" y="12.01" width="0.03" height="11.22"/>
        <rect x="42.43" y="12.01" width="0.03" height="11.22"/>
        <rect x="42.45" y="12.01" width="0.03" height="11.22"/>
        <rect x="42.48" y="12.01" width="0.03" height="11.22"/>
        <rect x="42.51" y="12.01" width="0.03" height="11.22"/>
        <rect x="42.53" y="12.01" width="0.03" height="11.22"/>
        <rect x="42.56" y="12.01" width="0.03" height="11.22"/>
        <rect x="42.59" y="12.01" width="0.03" height="11.22"/>
        <rect x="42.62" y="12.01" width="0.03" height="11.22"/>
        <rect x="42.64" y="12.01" width="0.03" height="11.22"/>
        <rect x="42.67" y="12.01" width="0.03" height="11.22"/>
        <rect x="42.7" y="12.01" width="0.03" height="11.22"/>
        <rect x="42.72" y="12.01" width="0.03" height="11.22"/>
        <rect x="42.75" y="12.01" width="0.03" height="11.22"/>
        <rect x="42.78" y="12.01" width="0.03" height="11.22"/>
        <rect x="42.8" y="12.01" width="0.03" height="11.22"/>
        <rect x="42.83" y="12.01" width="0.03" height="11.22"/>
        <rect x="42.86" y="12.01" width="0.03" height="11.22"/>
        <rect x="42.89" y="12.01" width="0.03" height="11.22"/>
        <rect x="42.91" y="12.01" width="0.03" height="11.22"/>
        <rect x="42.94" y="12.01" width="0.03" height="11.22"/>
        <rect x="42.97" y="12.01" width="0.03" height="11.22"/>
        <rect x="42.99" y="12.01" width="0.03" height="11.22"/>
        <rect x="43.02" y="12.01" width="0.03" height="11.22"/>
        <rect x="43.05" y="12.01" width="0.03" height="11.22"/>
        <rect x="43.07" y="12.01" width="0.03" height="11.22"/>
        <rect x="43.1" y="12.01" width="0.03" height="11.22"/>
        <rect x="43.13" y="12.01" width="0.03" height="11.22"/>
        <rect x="43.16" y="12.01" width="0.03" height="11.22"/>
        <rect x="43.18" y="12.01" width="0.03" height="11.22"/>
        <rect x="43.22" y="12.01" width="0.03" height="11.22"/>
        <rect x="43.25" y="12.01" width="0.03" height="11.22"/>
        <rect x="43.29" y="12.01" width="0.03" height="11.22"/>
        <rect x="43.32" y="12.01" width="0.03" height="11.22"/>
        <rect x="43.36" y="12.01" width="0.03" height="11.22"/>
        <rect x="43.39" y="12.01" width="0.03" height="11.22"/>
        <rect x="43.42" y="12.01" width="0.03" height="11.22"/>
        <rect x="43.46" y="12.01" width="0.03" height="11.22"/>
        <rect x="43.49" y="12.01" width="0.03" height="11.22"/>
        <rect x="43.53" y="12.01" width="0.03" height="11.22"/>
        <rect x="43.56" y="12.01" width="0.03" height="11.22"/>
        <rect x="43.6" y="12.01" width="0.03" height="11.22"/>
        <rect x="43.63" y="12.01" width="0.03" height="11.22"/>
        <rect x="43.67" y="12.01" width="0.03" height="11.22"/>
        <rect x="43.7" y="12.01" width="0.03" height="11.22"/>
        <rect x="43.73" y="12.01" width="0.03" height="11.22"/>
        <rect x="43.77" y="12.01" width="0.03" height="11.22"/>
        <rect x="43.8" y="12.01" width="0.03" height="11.22"/>
        <rect x="43.84" y="12.01" width="0.03" height="11.22"/>
        <rect x="43.87" y="12.01" width="0.03" height="11.22"/>
        <rect x="43.91" y="12.01" width="0.03" height="11.22"/>
        <rect x="43.94" y="12.01" width="0.03" height="11.22"/>
        <rect x="43.98" y="12.01" width="0.03" height="11.22"/>
        <rect x="44.01" y="12.01" width="0.03" height="11.22"/>
        <rect x="44.05" y="12.01" width="0.03" height="11.22"/>
        <rect x="44.08" y="12.01" width="0.01" height="11.22"/>
        <rect x="44.09" y="12.01" width="0.01" height="11.22"/>
        <rect x="44.11" y="12.01" width="0.01" height="11.22"/>
        <rect x="44.12" y="12.01" width="0.01" height="11.22"/>
        <rect x="44.14" y="12.01" width="0.01" height="11.22"/>
        <rect x="44.15" y="12.01" width="0.01" height="11.22"/>
        <rect x="44.17" y="12.01" width="0.01" height="11.22"/>
        <rect x="44.18" y="12.01" width="0.01" height="11.22"/>
        <rect x="44.2" y="12.01" width="0.01" height="11.22"/>
        <rect x="44.21" y="12.01" width="0.01" height="11.22"/>
        <rect x="44.23" y="12.01" width="0.01" height="11.22"/>
        <rect x="44.24" y="12.01" width="0.01" height="11.22"/>
        <rect x="44.25" y="12.01" width="0.01" height="11.22"/>
        <rect x="44.27" y="12.01" width="0.01" height="11.22"/>
        <rect x="44.28" y="12.01" width="0.01" height="11.22"/>
        <rect x="44.3" y="12.01" width="0.01" height="11.22"/>
        <rect x="44.31" y="12.01" width="0.01" height="11.22"/>
        <rect x="44.33" y="12.01" width="0.01" height="11.22"/>
        <rect x="44.34" y="12.01" width="0.01" height="11.22"/>
        <rect x="44.36" y="12.01" width="0.01" height="11.22"/>
        <rect x="44.37" y="12.01" width="0.01" height="11.22"/>
        <rect x="44.39" y="12.01" width="0.01" height="11.22"/>
        <rect x="44.4" y="12.01" width="0.01" height="11.22"/>
        <rect x="44.41" y="12.01" width="0.01" height="11.22"/>
        <rect x="44.43" y="12.01" width="0.01" height="11.22"/>
        <rect x="44.44" y="12.01" width="0.01" height="11.22"/>
        <rect x="44.46" y="12.01" width="0.01" height="11.22"/>
        <rect x="44.47" y="12.01" width="0.01" height="11.22"/>
        <rect x="44.49" y="12.01" width="0.01" height="11.22"/>
        <rect x="44.5" y="12.01" width="0.01" height="11.22"/>
        <rect x="44.52" y="12.01" width="0.01" height="11.22"/>
        <rect x="44.53" y="12.01" width="0.01" height="11.22"/>
        <rect x="44.55" y="12.01" width="0.01" height="11.22"/>
        <rect x="44.56" y="12.01" width="0.01" height="11.22"/>
        <rect x="44.57" y="12.01" width="0.01" height="11.22"/>
        <rect x="44.59" y="12.01" width="0.01" height="11.22"/>
        <rect x="44.6" y="12.01" width="0.01" height="11.22"/>
        <rect x="44.62" y="12.01" width="0.01" height="11.22"/>
        <rect x="44.63" y="12.01" width="0.01" height="11.22"/>
        <rect x="44.65" y="12.01" width="0.01" height="11.22"/>
        <rect x="44.66" y="12.01" width="0.01" height="11.22"/>
        <rect x="44.68" y="12.01" width="0.01" height="11.22"/>
        <rect x="44.69" y="12.01" width="0.01" height="11.22"/>
        <rect x="44.71" y="12.01" width="0.01" height="11.22"/>
        <rect x="44.72" y="12.01" width="0.01" height="11.22"/>
        <rect x="44.73" y="12.01" width="0.01" height="11.22"/>
        <rect x="44.75" y="12.01" width="0.01" height="11.22"/>
        <rect x="44.76" y="12.01" width="0.01" height="11.22"/>
        <rect x="44.78" y="12.01" width="0.01" height="11.22"/>
        <rect x="44.79" y="12.01" width="0.01" height="11.22"/>
        <rect x="44.81" y="12.01" width="0.01" height="11.22"/>
        <rect x="44.82" y="12.01" width="0.01" height="11.22"/>
        <rect x="44.84" y="12.01" width="0.01" height="11.22"/>
        <rect x="44.85" y="12.01" width="0.01" height="11.22"/>
        <path d="M45.51,23.56v0Z" transform="translate(-0.64 -0.33)"/>
      </g>
    </g>
    <rect x="64.04" y="19.12" width="53.96" height="0.14"/>
  </g>
</svg>
