<svg height="512" viewBox="0 0 64 64" width="512" xmlns="http://www.w3.org/2000/svg"><path d="m57 3h-50a4 4 0 0 0 -4 4v6h58v-6a4 4 0 0 0 -4-4zm-48 7a2 2 0 1 1 2-2 2 2 0 0 1 -2 2zm7 0a2 2 0 1 1 2-2 2 2 0 0 1 -2 2zm7 0a2 2 0 1 1 2-2 2 2 0 0 1 -2 2z" fill="#9bc9ff"/><path d="m59.2 35.15-2.54 2.53a14.459 14.459 0 0 0 -2.66-1.1v-3.58a2.006 2.006 0 0 0 -2-2h-4a2.006 2.006 0 0 0 -2 2v3.58a13.83 13.83 0 0 0 -2.66 1.11l-2.54-2.54a1.992 1.992 0 0 0 -2.82 0l-2.83 2.83a1.992 1.992 0 0 0 0 2.82l2.54 2.54a13.83 13.83 0 0 0 -1.11 2.66h-3.58a2.006 2.006 0 0 0 -2 2v4a2.006 2.006 0 0 0 2 2h3.58a13.83 13.83 0 0 0 1.11 2.66l-2.54 2.54a2.008 2.008 0 0 0 -.55 1.8h22.4a4 4 0 0 0 4-4v-22.4a2.008 2.008 0 0 0 -1.8.55zm-9.2 21.85a7 7 0 1 1 7-7 7 7 0 0 1 -7 7z" fill="#9bc9ff"/><g fill="#1e81ce"><path d="m57 2h-50a5.006 5.006 0 0 0 -5 5v50a5.006 5.006 0 0 0 5 5h50a5.006 5.006 0 0 0 5-5v-50a5.006 5.006 0 0 0 -5-5zm-50 2h50a3 3 0 0 1 3 3v5h-56v-5a3 3 0 0 1 3-3zm-3 53v-43h56v19.649a2.98 2.98 0 0 0 -1.506.792l-2.028 2.021a15.478 15.478 0 0 0 -1.466-.606v-2.856a3 3 0 0 0 -3-3h-4a3 3 0 0 0 -3 3v2.856a15.183 15.183 0 0 0 -1.469.611l-2.024-2.025a3.065 3.065 0 0 0 -4.234 0l-2.83 2.829a2.992 2.992 0 0 0 0 4.235l2.025 2.025a14.924 14.924 0 0 0 -.612 1.469h-2.856a3 3 0 0 0 -3 3v4a3 3 0 0 0 3 3h2.856a14.924 14.924 0 0 0 .612 1.468l-2.025 2.025a2.982 2.982 0 0 0 -.794 1.507h-26.649a3 3 0 0 1 -3-3zm53 3h-21.215a1.1 1.1 0 0 1 .072-.093l2.54-2.54a1 1 0 0 0 .17-1.187 13.047 13.047 0 0 1 -1.03-2.469 1 1 0 0 0 -.957-.711h-3.58a1 1 0 0 1 -1-1v-4a1 1 0 0 1 1-1h3.58a1 1 0 0 0 .957-.711 13.047 13.047 0 0 1 1.03-2.469 1 1 0 0 0 -.17-1.187l-2.54-2.541a.991.991 0 0 1 0-1.405l2.83-2.83a1.016 1.016 0 0 1 1.406 0l2.54 2.54a1 1 0 0 0 1.187.17 12.842 12.842 0 0 1 2.468-1.029 1 1 0 0 0 .712-.958v-3.58a1 1 0 0 1 1-1h4a1 1 0 0 1 1 1v3.58a1 1 0 0 0 .712.958 13.376 13.376 0 0 1 2.475 1.024 1 1 0 0 0 1.179-.173l2.541-2.532a.923.923 0 0 1 .093-.072v21.215a3 3 0 0 1 -3 3z"/><path d="m9 11a3 3 0 1 0 -3-3 3 3 0 0 0 3 3zm0-4a1 1 0 1 1 -1 1 1 1 0 0 1 1-1z"/><path d="m16 11a3 3 0 1 0 -3-3 3 3 0 0 0 3 3zm0-4a1 1 0 1 1 -1 1 1 1 0 0 1 1-1z"/><path d="m23 11a3 3 0 1 0 -3-3 3 3 0 0 0 3 3zm0-4a1 1 0 1 1 -1 1 1 1 0 0 1 1-1z"/><path d="m50 42a8 8 0 1 0 8 8 8.009 8.009 0 0 0 -8-8zm0 14a6 6 0 1 1 6-6 6.006 6.006 0 0 1 -6 6z"/><path d="m9 32a1 1 0 0 0 1-1v-5h4v5a1 1 0 0 0 2 0v-9a4 4 0 0 0 -8 0v9a1 1 0 0 0 1 1zm3-12a2 2 0 0 1 2 2v2h-4v-2a2 2 0 0 1 2-2z"/><path d="m19 32a1 1 0 0 0 1-1v-5h3a3 3 0 0 0 3-3v-2a3 3 0 0 0 -3-3h-4a1 1 0 0 0 -1 1v12a1 1 0 0 0 1 1zm1-12h3a1 1 0 0 1 1 1v2a1 1 0 0 1 -1 1h-3z"/><path d="m29 32a1 1 0 0 0 1-1v-12a1 1 0 0 0 -2 0v12a1 1 0 0 0 1 1z"/><path d="m9 38h20a1 1 0 0 0 0-2h-20a1 1 0 0 0 0 2z"/><path d="m29 42h-20a1 1 0 0 0 0 2h20a1 1 0 0 0 0-2z"/><path d="m26 48h-17a1 1 0 0 0 0 2h17a1 1 0 0 0 0-2z"/></g></svg>