<?xml version="1.0" standalone="no"?><!DOCTYPE svg PUBLIC "-//W3C//DTD SVG 1.1//EN" "http://www.w3.org/Graphics/SVG/1.1/DTD/svg11.dtd"><svg t="1590543071061" class="icon" viewBox="0 0 1024 1024" version="1.1" xmlns="http://www.w3.org/2000/svg" p-id="2713" xmlns:xlink="http://www.w3.org/1999/xlink" width="200" height="200"><defs><style type="text/css"></style></defs><path d="M618.944 994.496a36.208 36.208 0 0 1-24.56-9.488L103.264 542.992a36.96 36.96 0 0 1 0-54.672L594.384 46.32a36.8 36.8 0 0 1 52.064 2.784 36.8 36.8 0 0 1-2.784 52.048L182.832 515.68l460.656 414.672a36.96 36.96 0 0 1 2.784 52.048 36.8 36.8 0 0 1-27.328 12.112z m276.944 2.352a36.208 36.208 0 0 1-24.56-9.488L380.208 545.344a36.96 36.96 0 0 1 0-54.672L871.328 48.64a36.8 36.8 0 0 1 52.064 2.784 36.8 36.8 0 0 1-2.784 52.064L459.776 518.016l460.672 414.656a36.96 36.96 0 0 1 2.768 52.064 36.8 36.8 0 0 1-27.328 12.112z" p-id="2714"></path></svg>