<?xml version="1.0" standalone="no"?><!DOCTYPE svg PUBLIC "-//W3C//DTD SVG 1.1//EN" "http://www.w3.org/Graphics/SVG/1.1/DTD/svg11.dtd"><svg t="1590543065918" class="icon" viewBox="0 0 1024 1024" version="1.1" xmlns="http://www.w3.org/2000/svg" p-id="2583" xmlns:xlink="http://www.w3.org/1999/xlink" width="200" height="200"><defs><style type="text/css"></style></defs><path d="M405.056 39.2c8.848 0 17.52 3.104 24.56 9.488L920.736 490.72a36.96 36.96 0 0 1 0 54.672L429.616 987.392a36.8 36.8 0 0 1-52.064-2.784 36.8 36.8 0 0 1 2.784-52.064l460.832-414.496L380.512 103.36a36.96 36.96 0 0 1-2.784-52.064 36.8 36.8 0 0 1 27.328-12.112zM128.112 36.848c8.848 0 17.52 3.12 24.56 9.504l491.12 442a36.96 36.96 0 0 1 0 54.672L152.672 985.04a36.8 36.8 0 0 1-52.064-2.784 36.8 36.8 0 0 1 2.784-52.064l460.832-414.496L103.552 101.024A36.96 36.96 0 0 1 100.8 48.96a36.8 36.8 0 0 1 27.328-12.112z" p-id="2584"></path></svg>