<?xml version="1.0" standalone="no"?><!DOCTYPE svg PUBLIC "-//W3C//DTD SVG 1.1//EN" "http://www.w3.org/Graphics/SVG/1.1/DTD/svg11.dtd"><svg t="1590413973836" class="icon" viewBox="0 0 1024 1024" version="1.1" xmlns="http://www.w3.org/2000/svg" p-id="2105" xmlns:xlink="http://www.w3.org/1999/xlink" width="200" height="200"><defs><style type="text/css"></style></defs><path d="M512.032 104c109.008 0 211.536 42.576 288.56 119.584 77.008 77.008 119.376 179.424 119.408 288.4 0.032 108.96-42.368 211.36-119.408 288.48C723.52 877.536 621.072 920 512 920c-109.072 0-211.568-42.56-288.592-119.552C146.4 723.44 104 620.992 104 512.016c0-108.96 42.4-211.36 119.44-288.48C300.496 146.464 402.992 104 512.032 104zM664 598.08l-106.672-0.528V328h-106.64v269.552l-106.688-0.528 160.272 144.32 159.728-143.28z" fill="#1296db" p-id="2106"></path></svg>