<?xml version="1.0" standalone="no"?><!DOCTYPE svg PUBLIC "-//W3C//DTD SVG 1.1//EN" "http://www.w3.org/Graphics/SVG/1.1/DTD/svg11.dtd"><svg t="1590129375322" class="icon" viewBox="0 0 1024 1024" version="1.1" xmlns="http://www.w3.org/2000/svg" p-id="2281" xmlns:xlink="http://www.w3.org/1999/xlink" width="200" height="200"><defs><style type="text/css"></style></defs><path d="M432.336 432.064V312.16a39.968 39.968 0 0 1 79.952 0v119.888h119.872a39.968 39.968 0 1 1 0 79.936h-119.872v119.888a39.968 39.968 0 0 1-79.952 0V512H312.48a39.968 39.968 0 0 1 0-79.936h119.872zM473.392 512v119.888V512z m38.88-38.88h119.888-119.872z m216.48 355.952a437.568 437.568 0 0 1-256.432 82.528c-242.768 0-439.568-196.8-439.568-439.568 0-242.768 196.8-439.568 439.568-439.568 242.752 0 439.552 196.8 439.552 439.568a437.808 437.808 0 0 1-95.968 274.224l156.096 140.8a59.952 59.952 0 0 1-80.32 89.04l-162.944-147.008v-0.016z m-0.896-103.968c139.76-141.168 138.56-368.88-2.64-508.608-141.168-139.712-368.88-138.544-508.592 2.624-139.728 141.184-138.528 368.912 2.64 508.624 134.528 133.168 349.28 139.232 491.136 13.856 4.64-6.608 10.592-12.224 17.44-16.496z" p-id="2282"></path></svg>