<?xml version="1.0" encoding="UTF-8"?>
<svg width="512px" height="619px" viewBox="0 0 512 619" version="1.1" xmlns="http://www.w3.org/2000/svg" xmlns:xlink="http://www.w3.org/1999/xlink">
    <!-- Generator: Sketch 52.4 (67378) - http://www.bohemiancoding.com/sketch -->
    <title>分组</title>
    <desc>Created with Sketch.</desc>
    <g id="Page-1" stroke="none" stroke-width="1" fill="none" fill-rule="evenodd">
        <g id="分组">
            <g id="file">
                <path d="M469.333333,42.6666667 C492.897483,42.6666667 512,61.769184 512,85.3333333 L512,576 C512,599.564149 492.897483,618.666667 469.333333,618.666667 L85.3333333,618.666667 C61.769184,618.666667 42.6666667,599.564149 42.6666667,576 L469.333333,42.6666667 Z" id="Shape" fill="#90BAE1"></path>
                <path d="M138.666667,0 L426.666667,0 C450.230816,0 469.333333,19.1025173 469.333333,42.6666667 L469.333333,533.333333 C469.333333,556.897483 450.230816,576 426.666667,576 L42.6666667,576 C19.1025173,576 0,556.897483 0,533.333333 L0,138.666667 L138.666667,0 Z" id="Shape" fill="#B0D3F0"></path>
                <path d="M362.666667,53.3333333 L298.666667,53.3333333 C292.77563,53.3333333 288,48.557704 288,42.6666667 C288,36.7756293 292.77563,32 298.666667,32 L362.666667,32 C368.557703,32 373.333333,36.7756293 373.333333,42.6666667 C373.333333,48.557704 368.557703,53.3333333 362.666667,53.3333333 Z" id="Shape" fill="#ECF0F1"></path>
                <path d="M426.666667,53.3333333 L405.333333,53.3333333 C399.442297,53.3333333 394.666667,48.557704 394.666667,42.6666667 C394.666667,36.7756293 399.442297,32 405.333333,32 L426.666667,32 C432.557703,32 437.333333,36.7756293 437.333333,42.6666667 C437.333333,48.557704 432.557703,53.3333333 426.666667,53.3333333 Z" id="Shape" fill="#ECF0F1"></path>
                <path d="M138.666667,0 L138.666667,96 C138.666667,119.564149 119.564149,138.666667 96,138.666667 L0,138.666667 L138.666667,0 Z" id="Shape" fill="#90BAE1"></path>
            </g>
            <path d="M186.275862,221.655172 L106.827586,221.655172 C101.952245,221.655172 98,217.702927 98,212.827586 C98,207.952245 101.952245,204 106.827586,204 L186.275862,204 C191.151203,204 195.103448,207.952245 195.103448,212.827586 C195.103448,217.702927 191.151203,221.655172 186.275862,221.655172 Z" id="Shape" fill="#2980BA"></path>
            <path d="M300.448276,221.655172 L229.827586,221.655172 C224.952245,221.655172 221,217.702927 221,212.827586 C221,207.952245 224.952245,204 229.827586,204 L300.448276,204 C305.323617,204 309.275862,207.952245 309.275862,212.827586 C309.275862,217.702927 305.323617,221.655172 300.448276,221.655172 Z" id="Shape" fill="#2980BA"></path>
            <path d="M239.241379,265.655172 L106.827586,265.655172 C101.952245,265.655172 98,261.702927 98,256.827586 C98,251.952245 101.952245,248 106.827586,248 L239.241379,248 C244.11672,248 248.068966,251.952245 248.068966,256.827586 C248.068966,261.702927 244.11672,265.655172 239.241379,265.655172 Z" id="Shape" fill="#2980BA"></path>
            <path d="M186.275862,309.655172 L106.827586,309.655172 C101.952245,309.655172 98,305.702927 98,300.827586 C98,295.952245 101.952245,292 106.827586,292 L186.275862,292 C191.151203,292 195.103448,295.952245 195.103448,300.827586 C195.103448,305.702927 191.151203,309.655172 186.275862,309.655172 Z" id="Shape" fill="#2980BA"></path>
        </g>
    </g>
</svg>