<?xml version="1.0" standalone="no"?><!DOCTYPE svg PUBLIC "-//W3C//DTD SVG 1.1//EN" "http://www.w3.org/Graphics/SVG/1.1/DTD/svg11.dtd"><svg class="icon" width="200px" height="200.00px" viewBox="0 0 1024 1024" version="1.1" xmlns="http://www.w3.org/2000/svg"><path d="M64 640h896V384H64v256z m0 64v192c0 38.4 25.6 64 64 64h768c38.4 0 64-25.6 64-64v-192H64z m0-384h896V128c0-38.4-25.6-64-64-64H128c-38.4 0-64 25.6-64 64v192z m64-320h768c70.4 0 128 57.6 128 128v768c0 70.4-57.6 128-128 128H128c-70.4 0-128-57.6-128-128V128C0 57.6 57.6 0 128 0z m0 160h64v64H128v-64z m0 320h64v64H128v-64z m0 320h64v64H128v-64z m256-640h512v64H384v-64z m0 320h512v64H384v-64z m0 320h512v64H384v-64z" /></svg>