<?xml version="1.0" standalone="no"?><!DOCTYPE svg PUBLIC "-//W3C//DTD SVG 1.1//EN" "http://www.w3.org/Graphics/SVG/1.1/DTD/svg11.dtd"><svg t="1604025300572" class="icon" viewBox="0 0 13981 1024" version="1.1" xmlns="http://www.w3.org/2000/svg" p-id="8482" xmlns:xlink="http://www.w3.org/1999/xlink" width="2730.6640625" height="200"><defs><style type="text/css"></style></defs><path d="M2784.492308 181.169231v385.969231h-74.83077V110.276923h393.846154v456.861539h-78.76923V181.169231h-240.246154z m-114.215385 512l-66.953846 51.2c-11.815385-35.446154-31.507692-74.830769-55.138462-122.092308-43.323077 86.646154-94.523077 157.538462-149.661538 216.615385-11.815385-19.692308-39.384615-47.261538-59.076923-63.015385 63.015385-55.138462 118.153846-137.846154 161.476923-240.246154-43.323077-70.892308-90.584615-141.784615-137.846154-204.8l59.076923-39.384615c35.446154 47.261538 74.830769 102.4 110.276923 153.6 23.630769-70.892308 39.384615-149.661538 51.2-228.430769h-228.430769v-78.769231h248.123077l15.753846-3.938462 51.2 15.753846c-15.753846 141.784615-43.323077 271.753846-82.707692 378.092308 35.446154 63.015385 66.953846 118.153846 82.707692 165.415385z m330.830769 98.461538h51.2c23.630769 0 27.569231-23.630769 31.507693-141.784615 19.692308 15.753846 43.323077 23.630769 63.015384 31.507692-7.876923 133.907692-19.692308 173.292308-98.461538 173.292308h-66.953846c-63.015385 0-86.646154-19.692308-86.646154-82.707692v-153.6c-31.507692 90.584615-98.461538 185.107692-224.492308 248.123076-7.876923-15.753846-35.446154-47.261538-51.2-59.076923 216.615385-110.276923 244.184615-279.630769 244.184615-409.6V244.184615h74.83077v153.6c0 47.261538-3.938462 102.4-19.692308 161.476923h55.138462v200.861539c0 23.630769 7.876923 31.507692 27.56923 31.507692zM3347.692308 106.338462v259.938461h-78.769231V106.338462h78.769231z m122.092307 374.153846h295.384616c-59.076923-23.630769-110.276923-47.261538-157.538462-74.83077-39.384615 27.569231-86.646154 51.2-137.846154 74.83077z m322.953847 59.076923h-141.784616v59.076923h279.630769v63.015384h-279.630769v122.092308h78.769231c19.692308-35.446154 39.384615-82.707692 51.2-114.215384l82.707692 15.753846c-15.753846 35.446154-35.446154 66.953846-55.138461 98.461538h177.230769v66.953846h-748.307692v-66.953846h173.292307c-7.876923-23.630769-27.569231-63.015385-39.384615-94.523077l66.953846-23.630769c19.692308 31.507692 35.446154 66.953846 47.261539 94.523077l-63.015385 19.692308h145.723077v-122.092308h-271.753846v-63.015385h271.753846v-59.076923H3426.461538v-43.323077c-59.076923 19.692308-118.153846 39.384615-177.230769 51.2-7.876923-19.692308-27.569231-47.261538-43.323077-66.953846 106.338462-19.692308 216.615385-51.2 303.261539-98.461538h-74.830769V74.830769h78.76923v307.2c35.446154-19.692308 66.953846-39.384615 90.584616-63.015384l7.876923 3.938461c-15.753846-11.815385-47.261538-31.507692-66.953846-43.323077 59.076923-47.261538 106.338462-126.030769 133.907692-204.8l74.830769 15.753846c-7.876923 23.630769-15.753846 43.323077-27.569231 66.953847h259.938462v66.953846h-299.323077c-23.630769 35.446154-51.2 70.892308-78.769231 94.523077l59.076923 27.56923c3.938462 7.876923 0 11.815385-3.938461 19.692308 86.646154 47.261538 236.307692 90.584615 358.4 114.215385-15.753846 15.753846-35.446154 43.323077-47.261539 63.015384-55.138462-11.815385-118.153846-31.507692-181.16923-51.2v47.261539z m129.96923-196.923077l-47.261538 59.076923c-35.446154-31.507692-110.276923-82.707692-161.476923-118.153846L3761.230769 236.307692c51.2 31.507692 126.030769 78.769231 161.476923 106.338462z m606.523077 189.046154h208.738462v-129.969231H4529.230769v129.969231z m-271.753846 0h192.984615v-129.969231h-189.046153v35.446154c0 31.507692-3.938462 63.015385-3.938462 94.523077z m189.046154-322.953846h-189.046154v122.092307h189.046154V208.738462z m291.446154 122.092307V208.738462H4529.230769v122.092307h208.738462z m82.707692-200.861538v638.030769c0 47.261538-11.815385 70.892308-43.323077 82.707692-31.507692 11.815385-82.707692 15.753846-161.476923 15.753846-3.938462-23.630769-15.753846-59.076923-27.569231-78.76923 55.138462 3.938462 114.215385 0 129.969231 0 15.753846 0 23.630769-3.938462 23.630769-23.63077v-153.6H4529.230769v248.123077h-82.707692v-248.123077h-200.861539c-15.753846 94.523077-43.323077 192.984615-110.276923 263.876924-11.815385-15.753846-43.323077-43.323077-63.015384-51.2 94.523077-106.338462 102.4-259.938462 102.4-382.03077V129.969231h645.907692z m319.015385 303.261538h433.230769V275.692308h-433.230769v118.153846c3.938462 11.815385 3.938462 27.569231 0 39.384615z m240.246154-232.369231h275.692307v358.4h-82.707692V512h-437.169231c-11.815385 122.092308-39.384615 263.876923-118.153846 362.338462-15.753846-15.753846-51.2-39.384615-70.892308-47.261539 98.461538-126.030769 110.276923-303.261538 110.276923-433.230769V200.861538h279.63077c-7.876923-35.446154-27.569231-78.769231-43.323077-114.215384l78.76923-19.692308c19.692308 39.384615 39.384615 90.584615 51.2 122.092308l-43.323076 11.815384z m1209.107692-78.76923V196.923077h-421.415385V122.092308h421.415385z m-575.015385-51.2l78.769231 31.507692c-59.076923 78.769231-149.661538 165.415385-228.430769 220.553846-11.815385-19.692308-31.507692-51.2-47.261539-63.015384 70.892308-51.2 153.6-126.030769 196.923077-189.046154z m35.446154 185.107692l78.769231 27.569231c-27.569231 43.323077-59.076923 90.584615-94.523077 133.907692v452.923077h-82.707692v-362.338462c-27.569231 31.507692-59.076923 55.138462-86.646154 78.769231-11.815385-15.753846-39.384615-51.2-59.076923-66.953846 90.584615-63.015385 185.107692-165.415385 244.184615-263.876923z m563.2 102.4V433.230769h-122.092308v334.769231c0 43.323077-11.815385 66.953846-43.323077 78.769231-31.507692 11.815385-86.646154 11.815385-161.476923 11.815384-3.938462-23.630769-15.753846-55.138462-27.56923-78.76923h129.96923c15.753846 0 23.630769-3.938462 23.63077-15.753847v-334.76923h-271.753847V358.4h472.615385z m334.769231-137.846154l-74.830769 31.507692c-15.753846-35.446154-51.2-90.584615-86.646154-129.96923l70.892307-31.507693c35.446154 43.323077 74.830769 94.523077 90.584616 129.969231z m133.907692 55.138462h354.461539v39.384615c-11.815385 338.707692-23.630769 460.8-59.076923 504.123077-23.630769 27.569231-43.323077 35.446154-78.769231 39.384615-31.507692 3.938462-86.646154 3.938462-137.846154 0 0-23.630769-11.815385-59.076923-27.569231-82.707692 55.138462 3.938462 106.338462 3.938462 129.969231 3.938462 19.692308 0 27.569231 0 35.446154-11.815385 23.630769-23.630769 35.446154-137.846154 47.261538-409.6h-275.692307c-23.630769 165.415385-94.523077 358.4-307.2 496.246154-11.815385-15.753846-43.323077-47.261538-63.015385-59.076923 196.923077-126.030769 263.876923-291.446154 287.507692-441.107693h-263.876923V275.692308h271.753846c0-31.507692 3.938462-66.953846 3.938462-94.523077V74.830769h82.707692v106.338462c3.938462 31.507692 3.938462 63.015385 0 94.523077z m181.169231 338.707692l-70.892308 35.446154c-19.692308-43.323077-66.953846-114.215385-110.276923-165.415385l66.953846-31.507692c43.323077 47.261538 94.523077 118.153846 114.215385 161.476923z m775.876923-500.184615l74.830769-31.507693c51.2 114.215385 157.538462 244.184615 248.123077 311.138462-19.692308 15.753846-51.2 47.261538-63.015384 66.953846-23.630769-19.692308-43.323077-39.384615-63.015385-66.953846v27.569231c-11.815385 259.938462-23.630769 362.338462-51.2 393.846153-19.692308 23.630769-39.384615 31.507692-70.892308 35.446154-31.507692 3.938462-82.707692 3.938462-133.907692 0 0-23.630769-11.815385-59.076923-27.569231-82.707692 51.2 3.938462 102.4 3.938462 122.092308 3.938462 15.753846 0 27.569231 0 35.446154-11.815385 19.692308-19.692308 31.507692-102.4 39.384615-299.323077h-212.676923c-23.630769 169.353846-78.769231 319.015385-299.323077 397.784615-7.876923-19.692308-31.507692-51.2-51.2-70.892307 196.923077-66.953846 244.184615-192.984615 263.876923-326.892308h-153.6v-59.076923c-19.692308 23.630769-39.384615 39.384615-63.015384 59.076923-15.753846-15.753846-47.261538-47.261538-66.953847-63.015385 102.4-74.830769 189.046154-192.984615 240.246154-326.892307l86.646154 23.630769c-43.323077 102.4-102.4 204.8-173.292308 279.630769h508.061539c-74.830769-63.015385-145.723077-165.415385-189.046154-259.938461z m724.676923 409.6l-47.261538 63.015384c-15.753846-27.569231-43.323077-74.830769-66.953847-118.153846V866.461538h-78.76923v-378.092307c-31.507692 86.646154-66.953846 169.353846-106.338462 224.492307-7.876923-23.630769-27.569231-55.138462-39.384615-74.830769 55.138462-70.892308 110.276923-196.923077 137.846154-311.138461h-114.215385V252.061538h126.030769V70.892308h78.769231v181.16923h126.030769v74.83077h-126.030769v39.384615c23.630769 39.384615 94.523077 133.907692 110.276923 157.538462z m460.8-161.476923v74.830769h-118.153846V866.461538h-78.769231V441.107692h-137.846154c0 129.969231-15.753846 311.138462-94.523077 425.353846-15.753846-11.815385-47.261538-31.507692-66.953846-39.384615 78.769231-114.215385 86.646154-279.630769 86.646154-397.784615V165.415385c106.338462-19.692308 228.430769-51.2 295.384615-86.646154l66.953847 63.015384c-82.707692 35.446154-189.046154 59.076923-287.507693 78.769231v141.784616h334.769231z m271.753846 244.184615l82.707693 27.569231c-51.2 66.953846-126.030769 137.846154-192.984616 185.107692-15.753846-15.753846-51.2-43.323077-70.892308-55.138462 66.953846-39.384615 137.846154-98.461538 181.169231-157.538461z m445.046154-66.953846l-196.923077 15.753846v216.615385c0 43.323077-7.876923 63.015385-43.323077 74.830769-31.507692 11.815385-78.769231 11.815385-141.784615 11.815384-3.938462-23.630769-15.753846-59.076923-31.507692-78.76923 47.261538 3.938462 98.461538 3.938462 114.215384 0 15.753846 0 15.753846-3.938462 15.753846-15.753847v-208.738461c-220.553846 15.753846-256 23.630769-279.630769 31.507692-3.938462-15.753846-15.753846-51.2-23.630769-74.830769 31.507692-3.938462 66.953846-19.692308 118.153846-47.261538 27.569231-11.815385 82.707692-43.323077 149.661538-82.707693-157.538462 11.815385-185.107692 15.753846-204.8 23.630769-3.938462-15.753846-15.753846-51.2-23.630769-70.892307 19.692308-3.938462 39.384615-15.753846 63.015385-31.507693 19.692308-15.753846 74.830769-55.138462 126.030769-110.276923-74.830769 7.876923-149.661538 11.815385-220.553846 11.815385 0-19.692308-11.815385-51.2-19.692308-70.892308 208.738462-7.876923 456.861538-31.507692 598.646154-66.953846l59.076923 66.953846c-86.646154 19.692308-192.984615 35.446154-303.261538 47.261539-51.2 51.2-110.276923 102.4-165.415385 141.784615l192.984615-11.815384c43.323077-31.507692 90.584615-63.015385 129.969231-98.461539l59.076923 51.2c-114.215385 90.584615-240.246154 165.415385-362.338461 224.492308l326.892307-23.630769c-19.692308-23.630769-39.384615-43.323077-59.076923-63.015385l63.015385-31.507692c66.953846 59.076923 137.846154 141.784615 173.292308 192.984615l-63.015385 39.384615c-7.876923-7.876923-27.569231-35.446154-51.2-63.015384z m-133.907692 106.338461l66.953846-43.323077c66.953846 51.2 157.538462 122.092308 200.861538 169.353847l-70.892307 47.261538c-43.323077-47.261538-126.030769-122.092308-196.923077-173.292308z m1150.030769-161.476923l-66.953846 35.446154c-7.876923-19.692308-19.692308-39.384615-31.507692-63.015385-303.261538 31.507692-342.646154 35.446154-370.215385 43.323077-3.938462-19.692308-19.692308-59.076923-27.569231-78.76923 15.753846-3.938462 43.323077-11.815385 59.076923-27.569231 19.692308-15.753846 70.892308-82.707692 106.338462-133.907692h-145.723077V189.046154h200.861538c-7.876923-27.569231-27.569231-70.892308-43.323077-102.4l74.83077-19.692308c19.692308 31.507692 39.384615 78.769231 47.261538 106.338462l-55.138461 15.753846h240.246153v74.830769h-228.430769c-35.446154 47.261538-78.769231 106.338462-114.215384 149.661539l208.738461-19.692308c-15.753846-23.630769-35.446154-51.2-51.2-70.892308l63.015385-31.507692c55.138462 59.076923 110.276923 141.784615 133.907692 192.984615z m-645.907692 47.261539l141.784615-31.507693v70.892308c-208.738462 47.261538-244.184615 55.138462-263.876923 66.953846-3.938462-15.753846-15.753846-55.138462-27.569231-74.830769 19.692308-3.938462 39.384615-23.630769 66.953846-55.138462 15.753846-15.753846 43.323077-51.2 74.83077-98.461538-86.646154 11.815385-106.338462 15.753846-122.092308 23.630769-3.938462-15.753846-19.692308-59.076923-27.569231-82.707692 15.753846-3.938462 31.507692-23.630769 51.2-51.2 19.692308-27.569231 78.769231-133.907692 114.215385-236.307692l82.707692 35.446153c-35.446154 82.707692-86.646154 173.292308-137.846154 244.184616l86.646154-7.876923c19.692308-31.507692 35.446154-59.076923 51.2-94.523077l70.892308 43.323077c-43.323077 90.584615-102.4 177.230769-161.476923 248.123077z m141.784615 126.030769l15.753846 66.953846c-94.523077 35.446154-200.861538 70.892308-279.630769 98.461539l-19.692308-82.707693c70.892308-15.753846 177.230769-51.2 283.569231-82.707692z m114.215385-161.476923h78.76923c-7.876923 189.046154-31.507692 303.261538-189.046153 370.215384-7.876923-19.692308-31.507692-51.2-51.2-66.953846 137.846154-51.2 153.6-141.784615 161.476923-303.261538z m259.938461 287.507692h47.261539c15.753846 0 19.692308-19.692308 23.630769-122.092308 15.753846 15.753846 47.261538 27.569231 66.953846 31.507693-7.876923 126.030769-23.630769 161.476923-82.707692 161.476923h-66.953846c-66.953846 0-82.707692-23.630769-82.707693-94.523077v-259.938462h78.769231v259.938462c-3.938462 19.692308 0 23.630769 15.753846 23.630769zM12319.507692 634.092308v165.415384h311.138462v98.461539h-409.6V204.8h401.723077v98.461538h-303.261539v236.307693h271.753846v94.523077zM13158.4 531.692308c27.569231 15.753846 51.2 35.446154 66.953846 66.953846 15.753846 27.569231 23.630769 63.015385 23.630769 98.461538 0 27.569231-3.938462 55.138462-15.753846 78.769231-11.815385 23.630769-23.630769 47.261538-43.323077 63.015385-19.692308 19.692308-39.384615 31.507692-63.015384 43.323077s-51.2 15.753846-78.769231 15.753846h-271.753846V204.8h263.876923c23.630769 0 51.2 3.938462 70.892308 15.753846 23.630769 7.876923 43.323077 23.630769 59.076923 39.384616 15.753846 15.753846 31.507692 35.446154 39.384615 59.076923s15.753846 47.261538 15.753846 74.830769c0 15.753846-3.938462 31.507692-7.876923 43.323077-3.938462 11.815385-7.876923 27.569231-15.753846 39.384615-7.876923 11.815385-15.753846 23.630769-23.630769 31.507692 0 7.876923-7.876923 15.753846-19.692308 23.63077z m-279.630769-39.384616h145.723077c15.753846 0 27.569231-3.938462 39.384615-7.876923 11.815385-3.938462 23.630769-11.815385 31.507692-19.692307s15.753846-19.692308 19.692308-31.507693 7.876923-23.630769 7.876923-39.384615c0-27.569231-7.876923-51.2-27.569231-70.892308-19.692308-19.692308-43.323077-27.569231-70.892307-27.569231H12878.769231v196.923077z m153.6 319.015385c15.753846 0 31.507692-3.938462 43.323077-7.876923 15.753846-7.876923 27.569231-15.753846 35.446154-23.630769 11.815385-11.815385 19.692308-23.630769 23.630769-35.446154 7.876923-15.753846 7.876923-27.569231 7.876923-43.323077 0-15.753846-3.938462-31.507692-7.876923-43.323077-7.876923-15.753846-15.753846-27.569231-23.630769-35.446154-11.815385-11.815385-23.630769-19.692308-35.446154-23.630769-15.753846-7.876923-27.569231-7.876923-43.323077-7.876923H12878.769231v228.430769h153.6zM13402.584615 897.969231l283.569231-693.169231 283.569231 693.169231H13863.384615l-19.692307-55.138462h-319.015385l-23.630769 55.138462h-98.461539z m157.538462-141.784616h248.123077l-126.030769-319.015384-122.092308 319.015384zM864.571077 829.952c350.523077 98.461538 803.446154-27.569231 1075.2-303.261538h3.938461c-382.030769 441.107692-752.246154 571.076923-1165.784615 405.661538 27.569231-27.569231 66.953846-70.892308 86.646154-102.4zM1289.924923 10.752h63.015385c98.461538 3.938462 196.923077 27.569231 279.630769 86.646154 23.630769 15.753846 43.323077 35.446154 59.076923 55.138461l-224.492308 177.23077c-279.630769-122.092308-563.2 39.384615-799.507692 102.4-78.769231 23.630769-200.861538 39.384615-299.323077 19.692307-98.461538-23.630769-161.476923-74.830769-228.430769-122.092307-43.323077-39.384615-86.646154-74.830769-126.030769-114.215385 59.076923 39.384615 114.215385 82.707692 192.984615 102.4 295.384615 82.707692 618.338462-157.538462 815.261538-236.307692 86.646154-35.446154 173.292308-63.015385 267.815385-70.892308z" fill="#FFFFFF" p-id="8483"></path><path d="M1191.463385 345.521231c-126.030769 0-224.492308 102.4-224.492308 224.492307 0 126.030769 102.4 224.492308 224.492308 224.492308s224.492308-102.4 224.492307-224.492308-102.4-224.492308-224.492307-224.492307z m66.953846 322.953846c-118.153846 39.384615-196.923077-43.323077-196.923077-43.323077-98.461538-102.4 51.2-157.538462 51.2-157.538462-63.015385 43.323077-63.015385 82.707692-63.015385 82.707693 0 70.892308 78.769231 98.461538 78.769231 98.461538 110.276923 31.507692 169.353846-55.138462 169.353846-55.138461 39.384615-74.830769-94.523077-82.707692-94.523077-82.707693v35.446154h43.323077v35.446154l-94.523077 27.569231v-161.476923c157.538462-23.630769 189.046154 94.523077 189.046154 94.523077 23.630769 86.646154-82.707692 126.030769-82.707692 126.030769zM11267.938462 126.030769h39.384615v787.692308h-39.384615z" fill="#FFFFFF" p-id="8484"></path><path d="M11701.169231 303.261538V204.8h-98.461539v98.461538h94.523077zM11968.984615 204.8V669.538462c0 19.692308-3.938462 35.446154-11.815384 51.2-7.876923 15.753846-15.753846 31.507692-27.569231 43.323076s-27.569231 23.630769-43.323077 27.569231c-15.753846 7.876923-35.446154 11.815385-51.2 11.815385-19.692308 0-35.446154-3.938462-51.2-11.815385-15.753846-7.876923-31.507692-15.753846-43.323077-27.569231-11.815385-11.815385-19.692308-27.569231-27.569231-43.323076-7.876923-15.753846-11.815385-31.507692-11.815384-51.2v-271.753847h-98.461539V669.538462c0 31.507692 7.876923 63.015385 19.692308 90.584615 11.815385 27.569231 27.569231 51.2 51.2 70.892308s47.261538 35.446154 74.830769 47.261538c27.569231 11.815385 59.076923 19.692308 90.584616 19.692308 31.507692 0 63.015385-7.876923 90.584615-19.692308 27.569231-11.815385 55.138462-27.569231 74.830769-47.261538s39.384615-43.323077 51.2-70.892308 19.692308-59.076923 19.692308-90.584615V204.8h-106.338462z" fill="#FFFFFF" p-id="8485"></path></svg>