<?xml version="1.0" standalone="no"?><!DOCTYPE svg PUBLIC "-//W3C//DTD SVG 1.1//EN" "http://www.w3.org/Graphics/SVG/1.1/DTD/svg11.dtd"><svg t="1590129381436" class="icon" viewBox="0 0 1024 1024" version="1.1" xmlns="http://www.w3.org/2000/svg" p-id="2400" xmlns:xlink="http://www.w3.org/1999/xlink" width="200" height="200"><defs><style type="text/css"></style></defs><path d="M512.288 473.584h119.872-119.872z m216.448 355.952a437.568 437.568 0 0 1-256.416 82.528c-242.768 0-439.568-196.8-439.568-439.552C32.752 229.744 229.552 32.944 472.32 32.944c242.752 0 439.552 196.8 439.552 439.568a437.808 437.808 0 0 1-95.968 274.208l156.096 140.816a59.952 59.952 0 0 1-80.32 89.024L728.736 829.584v-0.032z m-0.88-103.952c139.76-141.184 138.56-368.88-2.64-508.624-141.168-139.712-368.88-138.528-508.592 2.64-139.728 141.168-138.528 368.912 2.64 508.624 134.528 133.152 349.28 139.232 491.136 13.856 4.64-6.624 10.592-12.224 17.44-16.496z" p-id="2401"></path><path d="M272 448m32 0l352 0q32 0 32 32l0 16q0 32-32 32l-352 0q-32 0-32-32l0-16q0-32 32-32Z" p-id="2402"></path></svg>