<?xml version="1.0" standalone="no"?><!DOCTYPE svg PUBLIC "-//W3C//DTD SVG 1.1//EN" "http://www.w3.org/Graphics/SVG/1.1/DTD/svg11.dtd"><svg class="icon" width="200px" height="169.26px" viewBox="0 0 1210 1024" version="1.1" xmlns="http://www.w3.org/2000/svg"><path d="M1015.156364 977.454545H195.025455A55.854545 55.854545 0 0 1 139.636364 922.065455V101.934545C139.636364 71.68 164.770909 46.545455 195.025455 46.545455H1014.690909c30.72 0 55.854545 25.134545 55.854546 55.38909V921.6c0 30.72-25.134545 55.854545-55.389091 55.854545z m-15.825455-859.694545H210.850909v788.945455h788.945455V117.76h-0.465455z m-215.505454 175.941818H426.356364c-25.6 0-50.269091-9.774545-68.421819-26.530909a87.505455 87.505455 0 0 1-28.392727-64.232727V113.105455h64.698182v90.298181c0 7.912727 3.258182 15.825455 9.309091 21.410909s14.429091 8.843636 22.807273 8.843637h357.003636c18.152727 0 32.116364-13.498182 32.116364-30.254546V113.105455h64.698181v90.298181c0.465455 49.803636-42.821818 90.298182-96.34909 90.298182z m-421.701819 211.316364h485.934546c18.152727 0 32.581818 13.498182 32.581818 30.254545 0 16.756364-14.429091 30.254545-32.581818 30.254546H362.123636c-18.152727 0-32.581818-13.498182-32.581818-30.254546 0-16.756364 14.429091-30.254545 32.581818-30.254545z m485.934546 246.690909H362.123636c-18.152727 0-32.581818-13.498182-32.581818-30.254546 0-16.756364 14.429091-30.254545 32.581818-30.254545h485.934546c18.152727 0 32.581818 13.498182 32.581818 30.254545 0 16.756364-14.429091 30.254545-32.581818 30.254546z" /></svg>