<?xml version="1.0" standalone="no"?><!DOCTYPE svg PUBLIC "-//W3C//DTD SVG 1.1//EN" "http://www.w3.org/Graphics/SVG/1.1/DTD/svg11.dtd"><svg class="icon" width="64px" height="64.00px" viewBox="0 0 1024 1024" version="1.1" xmlns="http://www.w3.org/2000/svg"><path d="M186.7 300.6H869c32.8 0 59.3 26.6 59.3 59.3v267c0 32.8-26.6 59.3-59.3 59.3H246l-118.7 59.3V359.9c0-32.8 26.6-59.3 59.4-59.3z" fill="#F55449" /><path d="M208.7 597.2V384.9h41.7l86.9 141.8V384.9h39.8v212.4h-43l-85.6-138.5v138.5h-39.8z m213.8 0V384.9H580v35.9H465.4v47.1H572v35.8H465.4v57.8H584v35.8H422.5z m228 0l-50.7-212.4h43.9l32 145.9 38.8-145.9h51l37.2 148.3 32.6-148.3h43.2l-51.6 212.4h-45.5l-42.3-158.8L697 597.2h-46.5z" fill="#FFFFFF" /></svg>