<svg height="496pt" viewBox="0 0 496 496" width="496pt" xmlns="http://www.w3.org/2000/svg"><path d="m264 248c0 8.835938-7.164062 16-16 16s-16-7.164062-16-16 7.164062-16 16-16 16 7.164062 16 16zm0 0" fill="#78b9eb"/><path d="m224 480v-104h-48l72-64 72 64h-48v104zm0 0" fill="#78b9eb"/><path d="m176 120h48v-104h48v104h48l-72 64zm0 0" fill="#78b9eb"/><g fill="#1a6fb0"><path d="m488 240h-25.441406c-3.355469-9.585938-12.402344-16-22.558594-16s-19.203125 6.414062-22.558594 16h-73.441406v-8c-.039062-13.238281-10.761719-23.960938-24-24h-144c-13.238281.039062-23.960938 10.761719-24 24v8h-73.441406c-2.453125-6.773438-7.785156-12.105469-14.558594-14.558594v-9.441406h8c13.238281-.039062 23.960938-10.761719 24-24v-144c-.039062-13.238281-10.761719-23.960938-24-24h-8v-16c0-4.417969-3.582031-8-8-8s-8 3.582031-8 8v16h-8c-13.238281.039062-23.960938 10.761719-24 24v144c.039062 13.238281 10.761719 23.960938 24 24h8v9.441406c-6.773438 2.453125-12.105469 7.785156-14.558594 14.558594h-25.441406c-4.417969 0-8 3.582031-8 8s3.582031 8 8 8h25.441406c3.355469 9.585938 12.402344 16 22.558594 16s19.203125-6.414062 22.558594-16h73.441406v8c.039062 13.238281 10.761719 23.960938 24 24h144c13.238281-.039062 23.960938-10.761719 24-24v-8h73.441406c2.453125 6.773438 7.785156 12.105469 14.558594 14.558594v9.441406h-8c-13.238281.039062-23.960938 10.761719-24 24v144c.039062 13.238281 10.761719 23.960938 24 24h8v16c0 4.417969 3.582031 8 8 8s8-3.582031 8-8v-16h8c13.238281-.039062 23.960938-10.761719 24-24v-144c-.039062-13.238281-10.761719-23.960938-24-24h-8v-9.441406c6.773438-2.453125 12.105469-7.785156 14.558594-14.558594h25.441406c4.417969 0 8-3.582031 8-8s-3.582031-8-8-8zm-448-40c-4.417969 0-8-3.582031-8-8v-144c0-4.417969 3.582031-8 8-8h32c4.417969 0 8 3.582031 8 8v144c0 4.417969-3.582031 8-8 8zm16 56c-4.417969 0-8-3.582031-8-8s3.582031-8 8-8 8 3.582031 8 8-3.582031 8-8 8zm272 8c0 4.417969-3.582031 8-8 8h-144c-4.417969 0-8-3.582031-8-8v-32c0-4.417969 3.582031-8 8-8h144c4.417969 0 8 3.582031 8 8zm128 32c4.417969 0 8 3.582031 8 8v144c0 4.417969-3.582031 8-8 8h-32c-4.417969 0-8-3.582031-8-8v-144c0-4.417969 3.582031-8 8-8zm-16-40c-4.417969 0-8-3.582031-8-8s3.582031-8 8-8 8 3.582031 8 8-3.582031 8-8 8zm0 0"/><path d="m242.679688 189.984375c3.03125 2.699219 7.609374 2.699219 10.640624 0l72-64c2.488282-2.207031 3.347657-5.722656 2.167969-8.828125-1.183593-3.109375-4.164062-5.160156-7.488281-5.15625h-40v-96c0-4.417969-3.582031-8-8-8h-48c-4.417969 0-8 3.582031-8 8v96h-40c-3.324219-.003906-6.304688 2.046875-7.488281 5.15625-1.179688 3.105469-.320313 6.621094 2.167969 8.828125zm-18.679688-61.984375c4.417969 0 8-3.582031 8-8v-96h32v96c0 4.417969 3.582031 8 8 8h26.960938l-50.960938 45.296875-50.960938-45.296875zm0 0"/><path d="m253.320312 306.015625c-3.03125-2.699219-7.609374-2.699219-10.640624 0l-72 64c-2.488282 2.207031-3.347657 5.722656-2.167969 8.828125 1.183593 3.109375 4.164062 5.160156 7.488281 5.15625h40v96c0 4.417969 3.582031 8 8 8h48c4.417969 0 8-3.582031 8-8v-96h40c3.324219.003906 6.304688-2.046875 7.488281-5.15625 1.179688-3.105469.320313-6.621094-2.167969-8.828125zm18.679688 61.984375c-4.417969 0-8 3.582031-8 8v96h-32v-96c0-4.417969-3.582031-8-8-8h-26.960938l50.960938-45.296875 50.960938 45.296875zm0 0"/><path d="m248 224c-13.253906 0-24 10.746094-24 24s10.746094 24 24 24 24-10.746094 24-24c-.039062-13.238281-10.761719-23.960938-24-24zm0 32c-4.417969 0-8-3.582031-8-8s3.582031-8 8-8 8 3.582031 8 8-3.582031 8-8 8zm0 0"/></g></svg>