<?xml version="1.0" standalone="no"?><!DOCTYPE svg PUBLIC "-//W3C//DTD SVG 1.1//EN" "http://www.w3.org/Graphics/SVG/1.1/DTD/svg11.dtd"><svg t="1590413979935" class="icon" viewBox="0 0 1024 1024" version="1.1" xmlns="http://www.w3.org/2000/svg" p-id="2235" xmlns:xlink="http://www.w3.org/1999/xlink" width="200" height="200"><defs><style type="text/css"></style></defs><path d="M511.968 920.96c-109.84 0-213.136-42.672-290.72-119.856C143.632 723.92 100.928 621.248 100.912 512c-0.048-109.216 42.672-211.856 120.32-289.152C298.848 145.584 402.08 103.024 512 103.024s213.168 42.656 290.768 119.84c77.6 77.184 120.32 179.888 120.32 289.12 0 109.216-42.72 211.872-120.352 289.152-77.648 77.28-180.896 119.84-290.768 119.84zM352 458.304l106.672 0.528v268.208h106.64V458.816l106.688 0.512-160.288-143.6L352 458.288z" fill="#1296db" p-id="2236"></path></svg>