<?xml version="1.0" standalone="no"?><!DOCTYPE svg PUBLIC "-//W3C//DTD SVG 1.1//EN" "http://www.w3.org/Graphics/SVG/1.1/DTD/svg11.dtd"><svg t="1590127524542" class="icon" viewBox="0 0 1024 1024" version="1.1" xmlns="http://www.w3.org/2000/svg" p-id="2161" xmlns:xlink="http://www.w3.org/1999/xlink" width="200" height="200"><defs><style type="text/css"></style></defs><path d="M480 313.6c19.2 0 32-12.8 32-32v-32c0-19.2-16-32-32-32-19.2 0-32 12.8-32 32v32c0 19.2 16 32 32 32zM828.8 419.2V416v3.2zM892.8 419.2V416v3.2zM496 553.6c-3.2 0 0 0 0 0zM566.4 553.6c0 16 12.8 32 32 32h358.4c16 0 32-16 32-32s-16-32-32-32H598.4c-16 0-32 16-32 32zM960 649.6H598.4c-19.2 0-32 16-32 32s12.8 32 32 32h358.4c16 0 32-16 32-32s-12.8-32-28.8-32zM956.8 784H595.2c-16 0-32 16-32 32s16 32 32 32h358.4c16 0 32-16 32-32s-12.8-32-28.8-32z" p-id="2162"></path><path d="M883.2 243.2l-128-128c-6.4-6.4-12.8-9.6-22.4-9.6h-576c-54.4 0-96 41.6-96 96v640c0 54.4 41.6 96 96 96H560c16 0 32-16 32-32s-16-32-32-32H281.6V652.8c0-19.2 16-35.2 35.2-35.2h176c16 0 32-16 32-32s-12.8-28.8-28.8-32H316.8c-54.4 0-99.2 44.8-99.2 99.2v220.8h-64c-19.2 0-32-12.8-32-32v-640c0-19.2 12.8-32 32-32h64v172.8c0 48 38.4 86.4 86.4 86.4h246.4c48 0 86.4-38.4 86.4-86.4V169.6H720l108.8 108.8V416c3.2 16 16 28.8 32 28.8s28.8-12.8 32-28.8v-150.4c0-6.4-3.2-16-9.6-22.4z m-313.6 99.2c0 9.6-9.6 22.4-22.4 22.4H304c-9.6 0-22.4-9.6-22.4-22.4V169.6h288v172.8z" p-id="2163"></path></svg>