<?xml version="1.0" standalone="no"?><!DOCTYPE svg PUBLIC "-//W3C//DTD SVG 1.1//EN" "http://www.w3.org/Graphics/SVG/1.1/DTD/svg11.dtd"><svg t="1590413984338" class="icon" viewBox="0 0 1024 1024" version="1.1" xmlns="http://www.w3.org/2000/svg" p-id="2365" xmlns:xlink="http://www.w3.org/1999/xlink" width="200" height="200"><defs><style type="text/css"></style></defs><path d="M512.032 104c109.008 0 211.536 42.576 288.56 119.584 77.008 77.008 119.376 179.424 119.408 288.4 0.032 108.96-42.368 211.36-119.408 288.48C723.52 877.536 621.072 920 512 920c-109.072 0-211.568-42.56-288.592-119.552C146.4 723.44 104 620.992 104 512.016c0-108.96 42.4-211.36 119.44-288.48C300.496 146.464 402.992 104 512.032 104z m-150.496 198.08H307.2c-15.008 0-27.184 11.744-27.184 26.24v393.6h108.72v-393.6c0-14.496-12.16-26.24-27.184-26.24zM716.816 512h-54.352c-15.024 0-27.2 11.744-27.2 26.24v183.68H744V538.24c0-14.496-12.16-26.24-27.184-26.24z m-173.344-104.96h-54.368c-15.008 0-27.168 11.744-27.168 26.24v288.64h108.72V433.28c0-14.496-12.16-26.24-27.184-26.24z" fill="#1296db" p-id="2366"></path><path d="M512.032 104c109.008 0 211.536 42.576 288.56 119.584 77.008 77.008 119.376 179.424 119.408 288.4 0.032 108.96-42.368 211.36-119.408 288.48C723.52 877.536 621.072 920 512 920c-109.072 0-211.568-42.56-288.592-119.552C146.4 723.44 104 620.992 104 512.016c0-108.96 42.4-211.36 119.44-288.48C300.496 146.464 402.992 104 512.032 104z m-150.496 198.08H307.2c-15.008 0-27.184 11.744-27.184 26.24v393.6h108.72v-393.6c0-14.496-12.16-26.24-27.184-26.24zM716.816 512h-54.352c-15.024 0-27.2 11.744-27.2 26.24v183.68H744V538.24c0-14.496-12.16-26.24-27.184-26.24z m-173.344-104.96h-54.368c-15.008 0-27.168 11.744-27.168 26.24v288.64h108.72V433.28c0-14.496-12.16-26.24-27.184-26.24z" fill="#1296db" p-id="2367"></path></svg>