<?xml version="1.0" standalone="no"?><!DOCTYPE svg PUBLIC "-//W3C//DTD SVG 1.1//EN" "http://www.w3.org/Graphics/SVG/1.1/DTD/svg11.dtd"><svg class="icon" width="200px" height="200.00px" viewBox="0 0 1024 1024" version="1.1" xmlns="http://www.w3.org/2000/svg"><path d="M671.99874 319.9994a31.99994 31.99994 0 0 1 0 63.99988h-511.99904a31.99994 31.99994 0 1 1 0-63.99988h511.99904z m-511.99904 447.99916a31.99994 31.99994 0 1 1 0-63.99988h191.99964a31.99994 31.99994 0 0 1 0 63.99988h-191.99964z m0-191.99964a31.99994 31.99994 0 1 1 0-63.99988h255.99952a31.99994 31.99994 0 0 1 0 63.99988h-255.99952z m575.99892 383.99928c121.599772 0 223.99958-102.399808 223.99958-223.99958S857.598392 511.99904 735.99862 511.99904 511.99904 614.398848 511.99904 735.99862 614.398848 959.9982 735.99862 959.9982zM63.99988 127.99976v767.99856h431.99919A287.74346 287.74346 0 0 1 447.99916 735.99862a286.783462 286.783462 0 0 1 319.9994-286.207463V127.99976h-127.99976v31.99994a31.99994 31.99994 0 0 1-63.99988 0V127.99976H255.99952v31.99994a31.99994 31.99994 0 1 1-63.99988 0V127.99976H63.99988z m767.99856 336.19137a286.719462 286.719462 0 0 1 191.99964 269.183495A288.831458 288.831458 0 0 1 735.99862 1023.99808a287.231461 287.231461 0 0 1-181.759659-63.99988H0V63.99988h191.99964V31.99994a31.99994 31.99994 0 1 1 63.99988 0V63.99988h319.9994V31.99994a31.99994 31.99994 0 1 1 63.99988 0V63.99988h191.99964v400.19125z m31.99994 257.727516a31.99994 31.99994 0 0 1 0 63.99988h-132.351752a27.647948 27.647948 0 0 1-27.647948-27.647948V596.478882a31.99994 31.99994 0 1 1 63.99988 0v125.439764h95.99982z" fill="#666666" /></svg>