<?xml version="1.0" encoding="utf-8"?>
<svg version="1.1" xmlns:xlink="http://www.w3.org/1999/xlink" width="42px" height="46px" xmlns="http://www.w3.org/2000/svg">
  <g transform="matrix(1 0 0 1 -83 -380 )">
    <path d="M 41 9.34375  C 41.0454545454545 2.9224375  30.6533181818182 0  21 0  C 11.3438181818182 0  0.954545454545455 2.9224375  1 9.34375  L 1 36.65625  C 0.954545454545455 43.0746875  11.3438181818182 46  21 46  C 30.65475 46  41.0454545454545 43.0746875  41 36.65625  L 41 9.34375  Z M 38.1818181818182 31.28575  L 38.1818181818182 36.65625  C 38.1818181818182 40.227  30.4886590909091 43.125  21 43.125  C 11.5099090909091 43.125  3.81818181818182 40.227  3.81818181818182 36.65625  L 3.81818181818182 31.28575  C 6.77631818181818 34.3461875  13.9125 35.9375  21 35.9375  C 28.0875 35.9375  35.2236818181818 34.3461875  38.1818181818182 31.28575  Z M 38.1818181818182 22.66075  L 38.1818181818182 28.03125  L 38.1760909090909 28.03125  C 38.1760909090909 28.045625  38.1818181818182 28.0614375  38.1818181818182 28.0758125  C 38.1818181818182 31.625  30.4886590909091 34.5  21 34.5  C 11.5113409090909 34.5  3.81818181818182 31.625  3.81818181818182 28.0758125  C 3.81818181818182 28.0614375  3.82390909090909 28.045625  3.82390909090909 28.03125  L 3.81818181818182 28.03125  L 3.81818181818182 22.66075  C 6.77631818181818 25.7211875  13.9125 27.3125  21 27.3125  C 28.0875 27.3125  35.2236818181818 25.7211875  38.1818181818182 22.66075  Z M 38.1818181818182 14.467  L 38.1818181818182 19.40625  L 38.1760909090909 19.40625  C 38.1760909090909 19.420625  38.1818181818182 19.4364375  38.1818181818182 19.4508125  C 38.1818181818182 23  30.4886590909091 25.875  21 25.875  C 11.5113409090909 25.875  3.81818181818182 23  3.81818181818182 19.4508125  C 3.81818181818182 19.4364375  3.82390909090909 19.420625  3.82390909090909 19.40625  L 3.81818181818182 19.40625  L 3.81818181818182 14.467  C 7.57097727272727 17.3376875  14.4494318181818 18.6875  21 18.6875  C 27.5505681818182 18.6875  34.4290227272727 17.3376875  38.1818181818182 14.467  Z M 38.1818181818182 9.34375  C 38.1818181818182 12.9145  30.4886590909091 15.8125  21 15.8125  C 11.5099090909091 15.8125  3.81818181818182 12.9145  3.81818181818182 9.34375  C 3.81818181818182 5.770125  11.5099090909091 2.875  21 2.875  C 30.4886590909091 2.875  38.1818181818182 5.770125  38.1818181818182 9.34375  Z " fill-rule="nonzero" fill="#4a90e2" stroke="none" transform="matrix(1 0 0 1 83 380 )" />
  </g>
</svg>